<?xml version="1.0" encoding="UTF-8" standalone="no"?><svg xmlns="http://www.w3.org/2000/svg" xmlns:xlink="http://www.w3.org/1999/xlink" contentScriptType="application/ecmascript" contentStyleType="text/css" height="797px" preserveAspectRatio="none" style="width:3143px;height:797px;" version="1.1" viewBox="0 0 3143 797" width="3143px" zoomAndPan="magnify"><defs><filter height="300%" id="fvlzsjix9w3im" width="300%" x="-1" y="-1"><feGaussianBlur result="blurOut" stdDeviation="2.0"/><feColorMatrix in="blurOut" result="blurOut2" type="matrix" values="0 0 0 0 0 0 0 0 0 0 0 0 0 0 0 0 0 0 .4 0"/><feOffset dx="4.0" dy="4.0" in="blurOut2" result="blurOut3"/><feBlend in="SourceGraphic" in2="blurOut3" mode="normal"/></filter></defs><g><!--class AnnotationFactory--><rect fill="#FFFFFF" filter="url(#fvlzsjix9w3im)" height="103.3438" id="AnnotationFactory" style="stroke: #000000; stroke-width: 1.5;" width="440" x="2426" y="43"/><ellipse cx="2593.25" cy="59" fill="#FFFFFF" rx="11" ry="11" style="stroke: #000000; stroke-width: 1.0;"/><path d="M2596.0156,54.875 Q2596.1719,54.6563 2596.3594,54.5469 Q2596.5469,54.4375 2596.7656,54.4375 Q2597.1406,54.4375 2597.375,54.6953 Q2597.6094,54.9531 2597.6094,55.5625 L2597.6094,57.0156 Q2597.6094,57.625 2597.375,57.8906 Q2597.1406,58.1563 2596.7656,58.1563 Q2596.4219,58.1563 2596.2188,57.9531 Q2596.0156,57.7656 2595.9063,57.25 Q2595.8594,56.8906 2595.6719,56.7031 Q2595.3438,56.3281 2594.7344,56.1094 Q2594.125,55.8906 2593.5,55.8906 Q2592.7344,55.8906 2592.1016,56.2188 Q2591.4688,56.5469 2590.9766,57.2969 Q2590.4844,58.0469 2590.4844,59.0781 L2590.4844,60.1719 Q2590.4844,61.4063 2591.375,62.2266 Q2592.2656,63.0469 2593.8594,63.0469 Q2594.7969,63.0469 2595.4531,62.7969 Q2595.8438,62.6406 2596.2656,62.2031 Q2596.5313,61.9375 2596.6797,61.8594 Q2596.8281,61.7813 2597.0313,61.7813 Q2597.3594,61.7813 2597.6172,62.0391 Q2597.875,62.2969 2597.875,62.6406 Q2597.875,62.9844 2597.5313,63.3906 Q2597.0313,63.9688 2596.2344,64.2969 Q2595.1563,64.75 2593.8594,64.75 Q2592.3438,64.75 2591.1406,64.125 Q2590.1563,63.625 2589.4688,62.5547 Q2588.7813,61.4844 2588.7813,60.2031 L2588.7813,59.0469 Q2588.7813,57.7188 2589.3984,56.5703 Q2590.0156,55.4219 2591.1094,54.8047 Q2592.2031,54.1875 2593.4375,54.1875 Q2594.1719,54.1875 2594.8203,54.3516 Q2595.4688,54.5156 2596.0156,54.875 Z "/><text fill="#000000" font-family="sans-serif" font-size="12" lengthAdjust="spacingAndGlyphs" textLength="97" x="2613.75" y="63.9102">AnnotationFactory</text><line style="stroke: #000000; stroke-width: 1.5;" x1="2427" x2="2865" y1="75" y2="75"/><line style="stroke: #000000; stroke-width: 1.5;" x1="2427" x2="2865" y1="83" y2="83"/><text fill="#000000" font-family="sans-serif" font-size="11" lengthAdjust="spacingAndGlyphs" text-decoration="underline" textLength="422" x="2432" y="98.4189">create(xref : XRef, ref : object, pdfManager : PDFManager, idFactory : Object) : Promise</text><text fill="#000000" font-family="sans-serif" font-size="11" lengthAdjust="spacingAndGlyphs" text-decoration="underline" textLength="428" x="2432" y="112.2549">_create(xref : XRef, ref : object, pdfManager : PDFManager, idFactory : Object) : Promise</text><text fill="#000000" font-family="sans-serif" font-size="11" lengthAdjust="spacingAndGlyphs" textLength="221" x="2432" y="126.0908">getQuadPoints(dict : Dict, rect : Array) : Array</text><text fill="#000000" font-family="sans-serif" font-size="11" lengthAdjust="spacingAndGlyphs" textLength="324" x="2432" y="139.9268">getTransformMatrix(rect : Array, bbox : Dict, matrix : Array) : Array</text><!--class Annotation--><rect fill="#FFFFFF" filter="url(#fvlzsjix9w3im)" height="186.3594" id="Annotation" style="stroke: #000000; stroke-width: 1.5;" width="236" x="2528" y="259"/><ellipse cx="2612.75" cy="275" fill="#FFFFFF" rx="11" ry="11" style="stroke: #000000; stroke-width: 1.0;"/><path d="M2615.5156,270.875 Q2615.6719,270.6563 2615.8594,270.5469 Q2616.0469,270.4375 2616.2656,270.4375 Q2616.6406,270.4375 2616.875,270.6953 Q2617.1094,270.9531 2617.1094,271.5625 L2617.1094,273.0156 Q2617.1094,273.625 2616.875,273.8906 Q2616.6406,274.1563 2616.2656,274.1563 Q2615.9219,274.1563 2615.7188,273.9531 Q2615.5156,273.7656 2615.4063,273.25 Q2615.3594,272.8906 2615.1719,272.7031 Q2614.8438,272.3281 2614.2344,272.1094 Q2613.625,271.8906 2613,271.8906 Q2612.2344,271.8906 2611.6016,272.2188 Q2610.9688,272.5469 2610.4766,273.2969 Q2609.9844,274.0469 2609.9844,275.0781 L2609.9844,276.1719 Q2609.9844,277.4063 2610.875,278.2266 Q2611.7656,279.0469 2613.3594,279.0469 Q2614.2969,279.0469 2614.9531,278.7969 Q2615.3438,278.6406 2615.7656,278.2031 Q2616.0313,277.9375 2616.1797,277.8594 Q2616.3281,277.7813 2616.5313,277.7813 Q2616.8594,277.7813 2617.1172,278.0391 Q2617.375,278.2969 2617.375,278.6406 Q2617.375,278.9844 2617.0313,279.3906 Q2616.5313,279.9688 2615.7344,280.2969 Q2614.6563,280.75 2613.3594,280.75 Q2611.8438,280.75 2610.6406,280.125 Q2609.6563,279.625 2608.9688,278.5547 Q2608.2813,277.4844 2608.2813,276.2031 L2608.2813,275.0469 Q2608.2813,273.7188 2608.8984,272.5703 Q2609.5156,271.4219 2610.6094,270.8047 Q2611.7031,270.1875 2612.9375,270.1875 Q2613.6719,270.1875 2614.3203,270.3516 Q2614.9688,270.5156 2615.5156,270.875 Z "/><text fill="#000000" font-family="sans-serif" font-size="12" lengthAdjust="spacingAndGlyphs" textLength="58" x="2633.25" y="279.9102">Annotation</text><line style="stroke: #000000; stroke-width: 1.5;" x1="2529" x2="2763" y1="291" y2="291"/><text fill="#000000" font-family="sans-serif" font-size="11" lengthAdjust="spacingAndGlyphs" textLength="59" x="2534" y="306.4189">data : object</text><line style="stroke: #000000; stroke-width: 1.5;" x1="2529" x2="2763" y1="312.8359" y2="312.8359"/><text fill="#000000" font-family="sans-serif" font-size="11" lengthAdjust="spacingAndGlyphs" textLength="151" x="2534" y="328.2549">+setContents(contents : String)</text><text fill="#000000" font-family="sans-serif" font-size="11" lengthAdjust="spacingAndGlyphs" textLength="224" x="2534" y="342.0908">+setModificationDate(modificationData : String)</text><text fill="#000000" font-family="sans-serif" font-size="11" lengthAdjust="spacingAndGlyphs" textLength="125" x="2534" y="355.9268">+setFlags(flags : Number)</text><text fill="#000000" font-family="sans-serif" font-size="11" lengthAdjust="spacingAndGlyphs" textLength="164" x="2534" y="369.7627">+hasFlag(flag : Number) : Boolean</text><text fill="#000000" font-family="sans-serif" font-size="11" lengthAdjust="spacingAndGlyphs" textLength="159" x="2534" y="383.5986">+setRectangle(rectangle : Array)</text><text fill="#000000" font-family="sans-serif" font-size="11" lengthAdjust="spacingAndGlyphs" textLength="115" x="2534" y="397.4346">+setColor(color : Array)</text><text fill="#000000" font-family="sans-serif" font-size="11" lengthAdjust="spacingAndGlyphs" textLength="169" x="2534" y="411.2705">+setBorderStyle(borderStyle : Dict)</text><text fill="#000000" font-family="sans-serif" font-size="11" lengthAdjust="spacingAndGlyphs" textLength="133" x="2534" y="425.1064">+setAppearance(dict : Dict)</text><text fill="#000000" font-family="sans-serif" font-size="11" lengthAdjust="spacingAndGlyphs" textLength="9" x="2534" y="438.9424">...</text><!--class AnnotationBorderStyle--><rect fill="#FFFFFF" filter="url(#fvlzsjix9w3im)" height="172.5234" id="AnnotationBorderStyle" style="stroke: #000000; stroke-width: 1.5;" width="231" x="2901.5" y="8"/><ellipse cx="2952.25" cy="24" fill="#FFFFFF" rx="11" ry="11" style="stroke: #000000; stroke-width: 1.0;"/><path d="M2955.0156,19.875 Q2955.1719,19.6563 2955.3594,19.5469 Q2955.5469,19.4375 2955.7656,19.4375 Q2956.1406,19.4375 2956.375,19.6953 Q2956.6094,19.9531 2956.6094,20.5625 L2956.6094,22.0156 Q2956.6094,22.625 2956.375,22.8906 Q2956.1406,23.1563 2955.7656,23.1563 Q2955.4219,23.1563 2955.2188,22.9531 Q2955.0156,22.7656 2954.9063,22.25 Q2954.8594,21.8906 2954.6719,21.7031 Q2954.3438,21.3281 2953.7344,21.1094 Q2953.125,20.8906 2952.5,20.8906 Q2951.7344,20.8906 2951.1016,21.2188 Q2950.4688,21.5469 2949.9766,22.2969 Q2949.4844,23.0469 2949.4844,24.0781 L2949.4844,25.1719 Q2949.4844,26.4063 2950.375,27.2266 Q2951.2656,28.0469 2952.8594,28.0469 Q2953.7969,28.0469 2954.4531,27.7969 Q2954.8438,27.6406 2955.2656,27.2031 Q2955.5313,26.9375 2955.6797,26.8594 Q2955.8281,26.7813 2956.0313,26.7813 Q2956.3594,26.7813 2956.6172,27.0391 Q2956.875,27.2969 2956.875,27.6406 Q2956.875,27.9844 2956.5313,28.3906 Q2956.0313,28.9688 2955.2344,29.2969 Q2954.1563,29.75 2952.8594,29.75 Q2951.3438,29.75 2950.1406,29.125 Q2949.1563,28.625 2948.4688,27.5547 Q2947.7813,26.4844 2947.7813,25.2031 L2947.7813,24.0469 Q2947.7813,22.7188 2948.3984,21.5703 Q2949.0156,20.4219 2950.1094,19.8047 Q2951.2031,19.1875 2952.4375,19.1875 Q2953.1719,19.1875 2953.8203,19.3516 Q2954.4688,19.5156 2955.0156,19.875 Z "/><text fill="#000000" font-family="sans-serif" font-size="12" lengthAdjust="spacingAndGlyphs" textLength="121" x="2972.75" y="28.9102">AnnotationBorderStyle</text><line style="stroke: #000000; stroke-width: 1.5;" x1="2902.5" x2="3131.5" y1="40" y2="40"/><text fill="#000000" font-family="sans-serif" font-size="11" lengthAdjust="spacingAndGlyphs" textLength="73" x="2907.5" y="55.4189">width : Number</text><text fill="#000000" font-family="sans-serif" font-size="11" lengthAdjust="spacingAndGlyphs" textLength="60" x="2907.5" y="69.2549">style : String</text><text fill="#000000" font-family="sans-serif" font-size="11" lengthAdjust="spacingAndGlyphs" textLength="89" x="2907.5" y="83.0908">dashArray : Array</text><text fill="#000000" font-family="sans-serif" font-size="11" lengthAdjust="spacingAndGlyphs" textLength="159" x="2907.5" y="96.9268">horizontalCornerRadius : Number</text><text fill="#000000" font-family="sans-serif" font-size="11" lengthAdjust="spacingAndGlyphs" textLength="147" x="2907.5" y="110.7627">verticalCornerRadius : Number</text><line style="stroke: #000000; stroke-width: 1.5;" x1="2902.5" x2="3131.5" y1="117.1797" y2="117.1797"/><text fill="#000000" font-family="sans-serif" font-size="11" lengthAdjust="spacingAndGlyphs" textLength="191" x="2907.5" y="132.5986">+setWidth(width : Number, rect : Array)</text><text fill="#000000" font-family="sans-serif" font-size="11" lengthAdjust="spacingAndGlyphs" textLength="171" x="2907.5" y="146.4346">+setDashArray(dashArray : Array)</text><text fill="#000000" font-family="sans-serif" font-size="11" lengthAdjust="spacingAndGlyphs" textLength="219" x="2907.5" y="160.2705">+setHorizontalCornerRadius(radius : Number)</text><text fill="#000000" font-family="sans-serif" font-size="11" lengthAdjust="spacingAndGlyphs" textLength="208" x="2907.5" y="174.1064">+setVerticalCornerRadius(radius : Number)</text><!--class MarkupAnnotation--><rect fill="#FFFFFF" filter="url(#fvlzsjix9w3im)" height="61.8359" id="MarkupAnnotation" style="stroke: #000000; stroke-width: 1.5;" width="201" x="1073.5" y="506"/><ellipse cx="1120.75" cy="522" fill="#FFFFFF" rx="11" ry="11" style="stroke: #000000; stroke-width: 1.0;"/><path d="M1123.5156,517.875 Q1123.6719,517.6563 1123.8594,517.5469 Q1124.0469,517.4375 1124.2656,517.4375 Q1124.6406,517.4375 1124.875,517.6953 Q1125.1094,517.9531 1125.1094,518.5625 L1125.1094,520.0156 Q1125.1094,520.625 1124.875,520.8906 Q1124.6406,521.1563 1124.2656,521.1563 Q1123.9219,521.1563 1123.7188,520.9531 Q1123.5156,520.7656 1123.4063,520.25 Q1123.3594,519.8906 1123.1719,519.7031 Q1122.8438,519.3281 1122.2344,519.1094 Q1121.625,518.8906 1121,518.8906 Q1120.2344,518.8906 1119.6016,519.2188 Q1118.9688,519.5469 1118.4766,520.2969 Q1117.9844,521.0469 1117.9844,522.0781 L1117.9844,523.1719 Q1117.9844,524.4063 1118.875,525.2266 Q1119.7656,526.0469 1121.3594,526.0469 Q1122.2969,526.0469 1122.9531,525.7969 Q1123.3438,525.6406 1123.7656,525.2031 Q1124.0313,524.9375 1124.1797,524.8594 Q1124.3281,524.7813 1124.5313,524.7813 Q1124.8594,524.7813 1125.1172,525.0391 Q1125.375,525.2969 1125.375,525.6406 Q1125.375,525.9844 1125.0313,526.3906 Q1124.5313,526.9688 1123.7344,527.2969 Q1122.6563,527.75 1121.3594,527.75 Q1119.8438,527.75 1118.6406,527.125 Q1117.6563,526.625 1116.9688,525.5547 Q1116.2813,524.4844 1116.2813,523.2031 L1116.2813,522.0469 Q1116.2813,520.7188 1116.8984,519.5703 Q1117.5156,518.4219 1118.6094,517.8047 Q1119.7031,517.1875 1120.9375,517.1875 Q1121.6719,517.1875 1122.3203,517.3516 Q1122.9688,517.5156 1123.5156,517.875 Z "/><text fill="#000000" font-family="sans-serif" font-size="12" lengthAdjust="spacingAndGlyphs" textLength="98" x="1141.25" y="526.9102">MarkupAnnotation</text><line style="stroke: #000000; stroke-width: 1.5;" x1="1074.5" x2="1273.5" y1="538" y2="538"/><line style="stroke: #000000; stroke-width: 1.5;" x1="1074.5" x2="1273.5" y1="546" y2="546"/><text fill="#000000" font-family="sans-serif" font-size="11" lengthAdjust="spacingAndGlyphs" textLength="189" x="1079.5" y="561.4189">+setCreationDate(creationDate : String)</text><!--class WidgetAnnotation--><rect fill="#FFFFFF" filter="url(#fvlzsjix9w3im)" height="61.8359" id="WidgetAnnotation" style="stroke: #000000; stroke-width: 1.5;" width="198" x="2404" y="506"/><ellipse cx="2450.75" cy="522" fill="#FFFFFF" rx="11" ry="11" style="stroke: #000000; stroke-width: 1.0;"/><path d="M2453.5156,517.875 Q2453.6719,517.6563 2453.8594,517.5469 Q2454.0469,517.4375 2454.2656,517.4375 Q2454.6406,517.4375 2454.875,517.6953 Q2455.1094,517.9531 2455.1094,518.5625 L2455.1094,520.0156 Q2455.1094,520.625 2454.875,520.8906 Q2454.6406,521.1563 2454.2656,521.1563 Q2453.9219,521.1563 2453.7188,520.9531 Q2453.5156,520.7656 2453.4063,520.25 Q2453.3594,519.8906 2453.1719,519.7031 Q2452.8438,519.3281 2452.2344,519.1094 Q2451.625,518.8906 2451,518.8906 Q2450.2344,518.8906 2449.6016,519.2188 Q2448.9688,519.5469 2448.4766,520.2969 Q2447.9844,521.0469 2447.9844,522.0781 L2447.9844,523.1719 Q2447.9844,524.4063 2448.875,525.2266 Q2449.7656,526.0469 2451.3594,526.0469 Q2452.2969,526.0469 2452.9531,525.7969 Q2453.3438,525.6406 2453.7656,525.2031 Q2454.0313,524.9375 2454.1797,524.8594 Q2454.3281,524.7813 2454.5313,524.7813 Q2454.8594,524.7813 2455.1172,525.0391 Q2455.375,525.2969 2455.375,525.6406 Q2455.375,525.9844 2455.0313,526.3906 Q2454.5313,526.9688 2453.7344,527.2969 Q2452.6563,527.75 2451.3594,527.75 Q2449.8438,527.75 2448.6406,527.125 Q2447.6563,526.625 2446.9688,525.5547 Q2446.2813,524.4844 2446.2813,523.2031 L2446.2813,522.0469 Q2446.2813,520.7188 2446.8984,519.5703 Q2447.5156,518.4219 2448.6094,517.8047 Q2449.7031,517.1875 2450.9375,517.1875 Q2451.6719,517.1875 2452.3203,517.3516 Q2452.9688,517.5156 2453.5156,517.875 Z "/><text fill="#000000" font-family="sans-serif" font-size="12" lengthAdjust="spacingAndGlyphs" textLength="96" x="2471.25" y="526.9102">WidgetAnnotation</text><line style="stroke: #000000; stroke-width: 1.5;" x1="2405" x2="2601" y1="538" y2="538"/><line style="stroke: #000000; stroke-width: 1.5;" x1="2405" x2="2601" y1="546" y2="546"/><text fill="#000000" font-family="sans-serif" font-size="11" lengthAdjust="spacingAndGlyphs" textLength="186" x="2410" y="561.4189">+hasFieldFlag(flag : Number) : Boolean</text><!--class TextWidgetAnnotation--><rect fill="#FFFFFF" filter="url(#fvlzsjix9w3im)" height="48" id="TextWidgetAnnotation" style="stroke: #000000; stroke-width: 1.5;" width="150" x="2332" y="629"/><ellipse cx="2347" cy="645" fill="#FFFFFF" rx="11" ry="11" style="stroke: #000000; stroke-width: 1.0;"/><path d="M2349.7656,640.875 Q2349.9219,640.6563 2350.1094,640.5469 Q2350.2969,640.4375 2350.5156,640.4375 Q2350.8906,640.4375 2351.125,640.6953 Q2351.3594,640.9531 2351.3594,641.5625 L2351.3594,643.0156 Q2351.3594,643.625 2351.125,643.8906 Q2350.8906,644.1563 2350.5156,644.1563 Q2350.1719,644.1563 2349.9688,643.9531 Q2349.7656,643.7656 2349.6563,643.25 Q2349.6094,642.8906 2349.4219,642.7031 Q2349.0938,642.3281 2348.4844,642.1094 Q2347.875,641.8906 2347.25,641.8906 Q2346.4844,641.8906 2345.8516,642.2188 Q2345.2188,642.5469 2344.7266,643.2969 Q2344.2344,644.0469 2344.2344,645.0781 L2344.2344,646.1719 Q2344.2344,647.4063 2345.125,648.2266 Q2346.0156,649.0469 2347.6094,649.0469 Q2348.5469,649.0469 2349.2031,648.7969 Q2349.5938,648.6406 2350.0156,648.2031 Q2350.2813,647.9375 2350.4297,647.8594 Q2350.5781,647.7813 2350.7813,647.7813 Q2351.1094,647.7813 2351.3672,648.0391 Q2351.625,648.2969 2351.625,648.6406 Q2351.625,648.9844 2351.2813,649.3906 Q2350.7813,649.9688 2349.9844,650.2969 Q2348.9063,650.75 2347.6094,650.75 Q2346.0938,650.75 2344.8906,650.125 Q2343.9063,649.625 2343.2188,648.5547 Q2342.5313,647.4844 2342.5313,646.2031 L2342.5313,645.0469 Q2342.5313,643.7188 2343.1484,642.5703 Q2343.7656,641.4219 2344.8594,640.8047 Q2345.9531,640.1875 2347.1875,640.1875 Q2347.9219,640.1875 2348.5703,640.3516 Q2349.2188,640.5156 2349.7656,640.875 Z "/><text fill="#000000" font-family="sans-serif" font-size="12" lengthAdjust="spacingAndGlyphs" textLength="118" x="2361" y="649.9102">TextWidgetAnnotation</text><line style="stroke: #000000; stroke-width: 1.5;" x1="2333" x2="2481" y1="661" y2="661"/><line style="stroke: #000000; stroke-width: 1.5;" x1="2333" x2="2481" y1="669" y2="669"/><!--class ButtonWidgetAnnotation--><rect fill="#FFFFFF" filter="url(#fvlzsjix9w3im)" height="48" id="ButtonWidgetAnnotation" style="stroke: #000000; stroke-width: 1.5;" width="163" x="2517.5" y="629"/><ellipse cx="2532.5" cy="645" fill="#FFFFFF" rx="11" ry="11" style="stroke: #000000; stroke-width: 1.0;"/><path d="M2535.2656,640.875 Q2535.4219,640.6563 2535.6094,640.5469 Q2535.7969,640.4375 2536.0156,640.4375 Q2536.3906,640.4375 2536.625,640.6953 Q2536.8594,640.9531 2536.8594,641.5625 L2536.8594,643.0156 Q2536.8594,643.625 2536.625,643.8906 Q2536.3906,644.1563 2536.0156,644.1563 Q2535.6719,644.1563 2535.4688,643.9531 Q2535.2656,643.7656 2535.1563,643.25 Q2535.1094,642.8906 2534.9219,642.7031 Q2534.5938,642.3281 2533.9844,642.1094 Q2533.375,641.8906 2532.75,641.8906 Q2531.9844,641.8906 2531.3516,642.2188 Q2530.7188,642.5469 2530.2266,643.2969 Q2529.7344,644.0469 2529.7344,645.0781 L2529.7344,646.1719 Q2529.7344,647.4063 2530.625,648.2266 Q2531.5156,649.0469 2533.1094,649.0469 Q2534.0469,649.0469 2534.7031,648.7969 Q2535.0938,648.6406 2535.5156,648.2031 Q2535.7813,647.9375 2535.9297,647.8594 Q2536.0781,647.7813 2536.2813,647.7813 Q2536.6094,647.7813 2536.8672,648.0391 Q2537.125,648.2969 2537.125,648.6406 Q2537.125,648.9844 2536.7813,649.3906 Q2536.2813,649.9688 2535.4844,650.2969 Q2534.4063,650.75 2533.1094,650.75 Q2531.5938,650.75 2530.3906,650.125 Q2529.4063,649.625 2528.7188,648.5547 Q2528.0313,647.4844 2528.0313,646.2031 L2528.0313,645.0469 Q2528.0313,643.7188 2528.6484,642.5703 Q2529.2656,641.4219 2530.3594,640.8047 Q2531.4531,640.1875 2532.6875,640.1875 Q2533.4219,640.1875 2534.0703,640.3516 Q2534.7188,640.5156 2535.2656,640.875 Z "/><text fill="#000000" font-family="sans-serif" font-size="12" lengthAdjust="spacingAndGlyphs" textLength="131" x="2546.5" y="649.9102">ButtonWidgetAnnotation</text><line style="stroke: #000000; stroke-width: 1.5;" x1="2518.5" x2="2679.5" y1="661" y2="661"/><line style="stroke: #000000; stroke-width: 1.5;" x1="2518.5" x2="2679.5" y1="669" y2="669"/><!--class ChoiceWidgetAnnotation--><rect fill="#FFFFFF" filter="url(#fvlzsjix9w3im)" height="48" id="ChoiceWidgetAnnotation" style="stroke: #000000; stroke-width: 1.5;" width="167" x="2715.5" y="629"/><ellipse cx="2730.5" cy="645" fill="#FFFFFF" rx="11" ry="11" style="stroke: #000000; stroke-width: 1.0;"/><path d="M2733.2656,640.875 Q2733.4219,640.6563 2733.6094,640.5469 Q2733.7969,640.4375 2734.0156,640.4375 Q2734.3906,640.4375 2734.625,640.6953 Q2734.8594,640.9531 2734.8594,641.5625 L2734.8594,643.0156 Q2734.8594,643.625 2734.625,643.8906 Q2734.3906,644.1563 2734.0156,644.1563 Q2733.6719,644.1563 2733.4688,643.9531 Q2733.2656,643.7656 2733.1563,643.25 Q2733.1094,642.8906 2732.9219,642.7031 Q2732.5938,642.3281 2731.9844,642.1094 Q2731.375,641.8906 2730.75,641.8906 Q2729.9844,641.8906 2729.3516,642.2188 Q2728.7188,642.5469 2728.2266,643.2969 Q2727.7344,644.0469 2727.7344,645.0781 L2727.7344,646.1719 Q2727.7344,647.4063 2728.625,648.2266 Q2729.5156,649.0469 2731.1094,649.0469 Q2732.0469,649.0469 2732.7031,648.7969 Q2733.0938,648.6406 2733.5156,648.2031 Q2733.7813,647.9375 2733.9297,647.8594 Q2734.0781,647.7813 2734.2813,647.7813 Q2734.6094,647.7813 2734.8672,648.0391 Q2735.125,648.2969 2735.125,648.6406 Q2735.125,648.9844 2734.7813,649.3906 Q2734.2813,649.9688 2733.4844,650.2969 Q2732.4063,650.75 2731.1094,650.75 Q2729.5938,650.75 2728.3906,650.125 Q2727.4063,649.625 2726.7188,648.5547 Q2726.0313,647.4844 2726.0313,646.2031 L2726.0313,645.0469 Q2726.0313,643.7188 2726.6484,642.5703 Q2727.2656,641.4219 2728.3594,640.8047 Q2729.4531,640.1875 2730.6875,640.1875 Q2731.4219,640.1875 2732.0703,640.3516 Q2732.7188,640.5156 2733.2656,640.875 Z "/><text fill="#000000" font-family="sans-serif" font-size="12" lengthAdjust="spacingAndGlyphs" textLength="135" x="2744.5" y="649.9102">ChoiceWidgetAnnotation</text><line style="stroke: #000000; stroke-width: 1.5;" x1="2716.5" x2="2881.5" y1="661" y2="661"/><line style="stroke: #000000; stroke-width: 1.5;" x1="2716.5" x2="2881.5" y1="669" y2="669"/><!--class TextAnnotation--><rect fill="#FFFFFF" filter="url(#fvlzsjix9w3im)" height="48" id="TextAnnotation" style="stroke: #000000; stroke-width: 1.5;" width="112" x="6" y="629"/><ellipse cx="21" cy="645" fill="#FFFFFF" rx="11" ry="11" style="stroke: #000000; stroke-width: 1.0;"/><path d="M23.7656,640.875 Q23.9219,640.6563 24.1094,640.5469 Q24.2969,640.4375 24.5156,640.4375 Q24.8906,640.4375 25.125,640.6953 Q25.3594,640.9531 25.3594,641.5625 L25.3594,643.0156 Q25.3594,643.625 25.125,643.8906 Q24.8906,644.1563 24.5156,644.1563 Q24.1719,644.1563 23.9688,643.9531 Q23.7656,643.7656 23.6563,643.25 Q23.6094,642.8906 23.4219,642.7031 Q23.0938,642.3281 22.4844,642.1094 Q21.875,641.8906 21.25,641.8906 Q20.4844,641.8906 19.8516,642.2188 Q19.2188,642.5469 18.7266,643.2969 Q18.2344,644.0469 18.2344,645.0781 L18.2344,646.1719 Q18.2344,647.4063 19.125,648.2266 Q20.0156,649.0469 21.6094,649.0469 Q22.5469,649.0469 23.2031,648.7969 Q23.5938,648.6406 24.0156,648.2031 Q24.2813,647.9375 24.4297,647.8594 Q24.5781,647.7813 24.7813,647.7813 Q25.1094,647.7813 25.3672,648.0391 Q25.625,648.2969 25.625,648.6406 Q25.625,648.9844 25.2813,649.3906 Q24.7813,649.9688 23.9844,650.2969 Q22.9063,650.75 21.6094,650.75 Q20.0938,650.75 18.8906,650.125 Q17.9063,649.625 17.2188,648.5547 Q16.5313,647.4844 16.5313,646.2031 L16.5313,645.0469 Q16.5313,643.7188 17.1484,642.5703 Q17.7656,641.4219 18.8594,640.8047 Q19.9531,640.1875 21.1875,640.1875 Q21.9219,640.1875 22.5703,640.3516 Q23.2188,640.5156 23.7656,640.875 Z "/><text fill="#000000" font-family="sans-serif" font-size="12" lengthAdjust="spacingAndGlyphs" textLength="80" x="35" y="649.9102">TextAnnotation</text><line style="stroke: #000000; stroke-width: 1.5;" x1="7" x2="117" y1="661" y2="661"/><line style="stroke: #000000; stroke-width: 1.5;" x1="7" x2="117" y1="669" y2="669"/><!--class LinkAnnotation--><rect fill="#FFFFFF" filter="url(#fvlzsjix9w3im)" height="48" id="LinkAnnotation" style="stroke: #000000; stroke-width: 1.5;" width="113" x="2637.5" y="513"/><ellipse cx="2652.5" cy="529" fill="#FFFFFF" rx="11" ry="11" style="stroke: #000000; stroke-width: 1.0;"/><path d="M2655.2656,524.875 Q2655.4219,524.6563 2655.6094,524.5469 Q2655.7969,524.4375 2656.0156,524.4375 Q2656.3906,524.4375 2656.625,524.6953 Q2656.8594,524.9531 2656.8594,525.5625 L2656.8594,527.0156 Q2656.8594,527.625 2656.625,527.8906 Q2656.3906,528.1563 2656.0156,528.1563 Q2655.6719,528.1563 2655.4688,527.9531 Q2655.2656,527.7656 2655.1563,527.25 Q2655.1094,526.8906 2654.9219,526.7031 Q2654.5938,526.3281 2653.9844,526.1094 Q2653.375,525.8906 2652.75,525.8906 Q2651.9844,525.8906 2651.3516,526.2188 Q2650.7188,526.5469 2650.2266,527.2969 Q2649.7344,528.0469 2649.7344,529.0781 L2649.7344,530.1719 Q2649.7344,531.4063 2650.625,532.2266 Q2651.5156,533.0469 2653.1094,533.0469 Q2654.0469,533.0469 2654.7031,532.7969 Q2655.0938,532.6406 2655.5156,532.2031 Q2655.7813,531.9375 2655.9297,531.8594 Q2656.0781,531.7813 2656.2813,531.7813 Q2656.6094,531.7813 2656.8672,532.0391 Q2657.125,532.2969 2657.125,532.6406 Q2657.125,532.9844 2656.7813,533.3906 Q2656.2813,533.9688 2655.4844,534.2969 Q2654.4063,534.75 2653.1094,534.75 Q2651.5938,534.75 2650.3906,534.125 Q2649.4063,533.625 2648.7188,532.5547 Q2648.0313,531.4844 2648.0313,530.2031 L2648.0313,529.0469 Q2648.0313,527.7188 2648.6484,526.5703 Q2649.2656,525.4219 2650.3594,524.8047 Q2651.4531,524.1875 2652.6875,524.1875 Q2653.4219,524.1875 2654.0703,524.3516 Q2654.7188,524.5156 2655.2656,524.875 Z "/><text fill="#000000" font-family="sans-serif" font-size="12" lengthAdjust="spacingAndGlyphs" textLength="81" x="2666.5" y="533.9102">LinkAnnotation</text><line style="stroke: #000000; stroke-width: 1.5;" x1="2638.5" x2="2749.5" y1="545" y2="545"/><line style="stroke: #000000; stroke-width: 1.5;" x1="2638.5" x2="2749.5" y1="553" y2="553"/><!--class PopupAnnotation--><rect fill="#FFFFFF" filter="url(#fvlzsjix9w3im)" height="48" id="PopupAnnotation" style="stroke: #000000; stroke-width: 1.5;" width="126" x="2786" y="513"/><ellipse cx="2801" cy="529" fill="#FFFFFF" rx="11" ry="11" style="stroke: #000000; stroke-width: 1.0;"/><path d="M2803.7656,524.875 Q2803.9219,524.6563 2804.1094,524.5469 Q2804.2969,524.4375 2804.5156,524.4375 Q2804.8906,524.4375 2805.125,524.6953 Q2805.3594,524.9531 2805.3594,525.5625 L2805.3594,527.0156 Q2805.3594,527.625 2805.125,527.8906 Q2804.8906,528.1563 2804.5156,528.1563 Q2804.1719,528.1563 2803.9688,527.9531 Q2803.7656,527.7656 2803.6563,527.25 Q2803.6094,526.8906 2803.4219,526.7031 Q2803.0938,526.3281 2802.4844,526.1094 Q2801.875,525.8906 2801.25,525.8906 Q2800.4844,525.8906 2799.8516,526.2188 Q2799.2188,526.5469 2798.7266,527.2969 Q2798.2344,528.0469 2798.2344,529.0781 L2798.2344,530.1719 Q2798.2344,531.4063 2799.125,532.2266 Q2800.0156,533.0469 2801.6094,533.0469 Q2802.5469,533.0469 2803.2031,532.7969 Q2803.5938,532.6406 2804.0156,532.2031 Q2804.2813,531.9375 2804.4297,531.8594 Q2804.5781,531.7813 2804.7813,531.7813 Q2805.1094,531.7813 2805.3672,532.0391 Q2805.625,532.2969 2805.625,532.6406 Q2805.625,532.9844 2805.2813,533.3906 Q2804.7813,533.9688 2803.9844,534.2969 Q2802.9063,534.75 2801.6094,534.75 Q2800.0938,534.75 2798.8906,534.125 Q2797.9063,533.625 2797.2188,532.5547 Q2796.5313,531.4844 2796.5313,530.2031 L2796.5313,529.0469 Q2796.5313,527.7188 2797.1484,526.5703 Q2797.7656,525.4219 2798.8594,524.8047 Q2799.9531,524.1875 2801.1875,524.1875 Q2801.9219,524.1875 2802.5703,524.3516 Q2803.2188,524.5156 2803.7656,524.875 Z "/><text fill="#000000" font-family="sans-serif" font-size="12" lengthAdjust="spacingAndGlyphs" textLength="94" x="2815" y="533.9102">PopupAnnotation</text><line style="stroke: #000000; stroke-width: 1.5;" x1="2787" x2="2911" y1="545" y2="545"/><line style="stroke: #000000; stroke-width: 1.5;" x1="2787" x2="2911" y1="553" y2="553"/><!--class FreeTextAnnotation--><rect fill="#FFFFFF" filter="url(#fvlzsjix9w3im)" height="48" id="FreeTextAnnotation" style="stroke: #000000; stroke-width: 1.5;" width="137" x="153.5" y="629"/><ellipse cx="168.5" cy="645" fill="#FFFFFF" rx="11" ry="11" style="stroke: #000000; stroke-width: 1.0;"/><path d="M171.2656,640.875 Q171.4219,640.6563 171.6094,640.5469 Q171.7969,640.4375 172.0156,640.4375 Q172.3906,640.4375 172.625,640.6953 Q172.8594,640.9531 172.8594,641.5625 L172.8594,643.0156 Q172.8594,643.625 172.625,643.8906 Q172.3906,644.1563 172.0156,644.1563 Q171.6719,644.1563 171.4688,643.9531 Q171.2656,643.7656 171.1563,643.25 Q171.1094,642.8906 170.9219,642.7031 Q170.5938,642.3281 169.9844,642.1094 Q169.375,641.8906 168.75,641.8906 Q167.9844,641.8906 167.3516,642.2188 Q166.7188,642.5469 166.2266,643.2969 Q165.7344,644.0469 165.7344,645.0781 L165.7344,646.1719 Q165.7344,647.4063 166.625,648.2266 Q167.5156,649.0469 169.1094,649.0469 Q170.0469,649.0469 170.7031,648.7969 Q171.0938,648.6406 171.5156,648.2031 Q171.7813,647.9375 171.9297,647.8594 Q172.0781,647.7813 172.2813,647.7813 Q172.6094,647.7813 172.8672,648.0391 Q173.125,648.2969 173.125,648.6406 Q173.125,648.9844 172.7813,649.3906 Q172.2813,649.9688 171.4844,650.2969 Q170.4063,650.75 169.1094,650.75 Q167.5938,650.75 166.3906,650.125 Q165.4063,649.625 164.7188,648.5547 Q164.0313,647.4844 164.0313,646.2031 L164.0313,645.0469 Q164.0313,643.7188 164.6484,642.5703 Q165.2656,641.4219 166.3594,640.8047 Q167.4531,640.1875 168.6875,640.1875 Q169.4219,640.1875 170.0703,640.3516 Q170.7188,640.5156 171.2656,640.875 Z "/><text fill="#000000" font-family="sans-serif" font-size="12" lengthAdjust="spacingAndGlyphs" textLength="105" x="182.5" y="649.9102">FreeTextAnnotation</text><line style="stroke: #000000; stroke-width: 1.5;" x1="154.5" x2="289.5" y1="661" y2="661"/><line style="stroke: #000000; stroke-width: 1.5;" x1="154.5" x2="289.5" y1="669" y2="669"/><!--class LineAnnotation--><rect fill="#FFFFFF" filter="url(#fvlzsjix9w3im)" height="48" id="LineAnnotation" style="stroke: #000000; stroke-width: 1.5;" width="114" x="326" y="629"/><ellipse cx="341" cy="645" fill="#FFFFFF" rx="11" ry="11" style="stroke: #000000; stroke-width: 1.0;"/><path d="M343.7656,640.875 Q343.9219,640.6563 344.1094,640.5469 Q344.2969,640.4375 344.5156,640.4375 Q344.8906,640.4375 345.125,640.6953 Q345.3594,640.9531 345.3594,641.5625 L345.3594,643.0156 Q345.3594,643.625 345.125,643.8906 Q344.8906,644.1563 344.5156,644.1563 Q344.1719,644.1563 343.9688,643.9531 Q343.7656,643.7656 343.6563,643.25 Q343.6094,642.8906 343.4219,642.7031 Q343.0938,642.3281 342.4844,642.1094 Q341.875,641.8906 341.25,641.8906 Q340.4844,641.8906 339.8516,642.2188 Q339.2188,642.5469 338.7266,643.2969 Q338.2344,644.0469 338.2344,645.0781 L338.2344,646.1719 Q338.2344,647.4063 339.125,648.2266 Q340.0156,649.0469 341.6094,649.0469 Q342.5469,649.0469 343.2031,648.7969 Q343.5938,648.6406 344.0156,648.2031 Q344.2813,647.9375 344.4297,647.8594 Q344.5781,647.7813 344.7813,647.7813 Q345.1094,647.7813 345.3672,648.0391 Q345.625,648.2969 345.625,648.6406 Q345.625,648.9844 345.2813,649.3906 Q344.7813,649.9688 343.9844,650.2969 Q342.9063,650.75 341.6094,650.75 Q340.0938,650.75 338.8906,650.125 Q337.9063,649.625 337.2188,648.5547 Q336.5313,647.4844 336.5313,646.2031 L336.5313,645.0469 Q336.5313,643.7188 337.1484,642.5703 Q337.7656,641.4219 338.8594,640.8047 Q339.9531,640.1875 341.1875,640.1875 Q341.9219,640.1875 342.5703,640.3516 Q343.2188,640.5156 343.7656,640.875 Z "/><text fill="#000000" font-family="sans-serif" font-size="12" lengthAdjust="spacingAndGlyphs" textLength="82" x="355" y="649.9102">LineAnnotation</text><line style="stroke: #000000; stroke-width: 1.5;" x1="327" x2="439" y1="661" y2="661"/><line style="stroke: #000000; stroke-width: 1.5;" x1="327" x2="439" y1="669" y2="669"/><!--class SquareAnnotation--><rect fill="#FFFFFF" filter="url(#fvlzsjix9w3im)" height="48" id="SquareAnnotation" style="stroke: #000000; stroke-width: 1.5;" width="130" x="475" y="629"/><ellipse cx="490" cy="645" fill="#FFFFFF" rx="11" ry="11" style="stroke: #000000; stroke-width: 1.0;"/><path d="M492.7656,640.875 Q492.9219,640.6563 493.1094,640.5469 Q493.2969,640.4375 493.5156,640.4375 Q493.8906,640.4375 494.125,640.6953 Q494.3594,640.9531 494.3594,641.5625 L494.3594,643.0156 Q494.3594,643.625 494.125,643.8906 Q493.8906,644.1563 493.5156,644.1563 Q493.1719,644.1563 492.9688,643.9531 Q492.7656,643.7656 492.6563,643.25 Q492.6094,642.8906 492.4219,642.7031 Q492.0938,642.3281 491.4844,642.1094 Q490.875,641.8906 490.25,641.8906 Q489.4844,641.8906 488.8516,642.2188 Q488.2188,642.5469 487.7266,643.2969 Q487.2344,644.0469 487.2344,645.0781 L487.2344,646.1719 Q487.2344,647.4063 488.125,648.2266 Q489.0156,649.0469 490.6094,649.0469 Q491.5469,649.0469 492.2031,648.7969 Q492.5938,648.6406 493.0156,648.2031 Q493.2813,647.9375 493.4297,647.8594 Q493.5781,647.7813 493.7813,647.7813 Q494.1094,647.7813 494.3672,648.0391 Q494.625,648.2969 494.625,648.6406 Q494.625,648.9844 494.2813,649.3906 Q493.7813,649.9688 492.9844,650.2969 Q491.9063,650.75 490.6094,650.75 Q489.0938,650.75 487.8906,650.125 Q486.9063,649.625 486.2188,648.5547 Q485.5313,647.4844 485.5313,646.2031 L485.5313,645.0469 Q485.5313,643.7188 486.1484,642.5703 Q486.7656,641.4219 487.8594,640.8047 Q488.9531,640.1875 490.1875,640.1875 Q490.9219,640.1875 491.5703,640.3516 Q492.2188,640.5156 492.7656,640.875 Z "/><text fill="#000000" font-family="sans-serif" font-size="12" lengthAdjust="spacingAndGlyphs" textLength="98" x="504" y="649.9102">SquareAnnotation</text><line style="stroke: #000000; stroke-width: 1.5;" x1="476" x2="604" y1="661" y2="661"/><line style="stroke: #000000; stroke-width: 1.5;" x1="476" x2="604" y1="669" y2="669"/><!--class CircleAnnotation--><rect fill="#FFFFFF" filter="url(#fvlzsjix9w3im)" height="48" id="CircleAnnotation" style="stroke: #000000; stroke-width: 1.5;" width="122" x="640" y="629"/><ellipse cx="655" cy="645" fill="#FFFFFF" rx="11" ry="11" style="stroke: #000000; stroke-width: 1.0;"/><path d="M657.7656,640.875 Q657.9219,640.6563 658.1094,640.5469 Q658.2969,640.4375 658.5156,640.4375 Q658.8906,640.4375 659.125,640.6953 Q659.3594,640.9531 659.3594,641.5625 L659.3594,643.0156 Q659.3594,643.625 659.125,643.8906 Q658.8906,644.1563 658.5156,644.1563 Q658.1719,644.1563 657.9688,643.9531 Q657.7656,643.7656 657.6563,643.25 Q657.6094,642.8906 657.4219,642.7031 Q657.0938,642.3281 656.4844,642.1094 Q655.875,641.8906 655.25,641.8906 Q654.4844,641.8906 653.8516,642.2188 Q653.2188,642.5469 652.7266,643.2969 Q652.2344,644.0469 652.2344,645.0781 L652.2344,646.1719 Q652.2344,647.4063 653.125,648.2266 Q654.0156,649.0469 655.6094,649.0469 Q656.5469,649.0469 657.2031,648.7969 Q657.5938,648.6406 658.0156,648.2031 Q658.2813,647.9375 658.4297,647.8594 Q658.5781,647.7813 658.7813,647.7813 Q659.1094,647.7813 659.3672,648.0391 Q659.625,648.2969 659.625,648.6406 Q659.625,648.9844 659.2813,649.3906 Q658.7813,649.9688 657.9844,650.2969 Q656.9063,650.75 655.6094,650.75 Q654.0938,650.75 652.8906,650.125 Q651.9063,649.625 651.2188,648.5547 Q650.5313,647.4844 650.5313,646.2031 L650.5313,645.0469 Q650.5313,643.7188 651.1484,642.5703 Q651.7656,641.4219 652.8594,640.8047 Q653.9531,640.1875 655.1875,640.1875 Q655.9219,640.1875 656.5703,640.3516 Q657.2188,640.5156 657.7656,640.875 Z "/><text fill="#000000" font-family="sans-serif" font-size="12" lengthAdjust="spacingAndGlyphs" textLength="90" x="669" y="649.9102">CircleAnnotation</text><line style="stroke: #000000; stroke-width: 1.5;" x1="641" x2="761" y1="661" y2="661"/><line style="stroke: #000000; stroke-width: 1.5;" x1="641" x2="761" y1="669" y2="669"/><!--class PolylineAnnotation--><rect fill="#FFFFFF" filter="url(#fvlzsjix9w3im)" height="48" id="PolylineAnnotation" style="stroke: #000000; stroke-width: 1.5;" width="133" x="797.5" y="629"/><ellipse cx="812.5" cy="645" fill="#FFFFFF" rx="11" ry="11" style="stroke: #000000; stroke-width: 1.0;"/><path d="M815.2656,640.875 Q815.4219,640.6563 815.6094,640.5469 Q815.7969,640.4375 816.0156,640.4375 Q816.3906,640.4375 816.625,640.6953 Q816.8594,640.9531 816.8594,641.5625 L816.8594,643.0156 Q816.8594,643.625 816.625,643.8906 Q816.3906,644.1563 816.0156,644.1563 Q815.6719,644.1563 815.4688,643.9531 Q815.2656,643.7656 815.1563,643.25 Q815.1094,642.8906 814.9219,642.7031 Q814.5938,642.3281 813.9844,642.1094 Q813.375,641.8906 812.75,641.8906 Q811.9844,641.8906 811.3516,642.2188 Q810.7188,642.5469 810.2266,643.2969 Q809.7344,644.0469 809.7344,645.0781 L809.7344,646.1719 Q809.7344,647.4063 810.625,648.2266 Q811.5156,649.0469 813.1094,649.0469 Q814.0469,649.0469 814.7031,648.7969 Q815.0938,648.6406 815.5156,648.2031 Q815.7813,647.9375 815.9297,647.8594 Q816.0781,647.7813 816.2813,647.7813 Q816.6094,647.7813 816.8672,648.0391 Q817.125,648.2969 817.125,648.6406 Q817.125,648.9844 816.7813,649.3906 Q816.2813,649.9688 815.4844,650.2969 Q814.4063,650.75 813.1094,650.75 Q811.5938,650.75 810.3906,650.125 Q809.4063,649.625 808.7188,648.5547 Q808.0313,647.4844 808.0313,646.2031 L808.0313,645.0469 Q808.0313,643.7188 808.6484,642.5703 Q809.2656,641.4219 810.3594,640.8047 Q811.4531,640.1875 812.6875,640.1875 Q813.4219,640.1875 814.0703,640.3516 Q814.7188,640.5156 815.2656,640.875 Z "/><text fill="#000000" font-family="sans-serif" font-size="12" lengthAdjust="spacingAndGlyphs" textLength="101" x="826.5" y="649.9102">PolylineAnnotation</text><line style="stroke: #000000; stroke-width: 1.5;" x1="798.5" x2="929.5" y1="661" y2="661"/><line style="stroke: #000000; stroke-width: 1.5;" x1="798.5" x2="929.5" y1="669" y2="669"/><!--class PolygonAnnotation--><rect fill="#FFFFFF" filter="url(#fvlzsjix9w3im)" height="48" id="PolygonAnnotation" style="stroke: #000000; stroke-width: 1.5;" width="134" x="797" y="738"/><ellipse cx="812" cy="754" fill="#FFFFFF" rx="11" ry="11" style="stroke: #000000; stroke-width: 1.0;"/><path d="M814.7656,749.875 Q814.9219,749.6563 815.1094,749.5469 Q815.2969,749.4375 815.5156,749.4375 Q815.8906,749.4375 816.125,749.6953 Q816.3594,749.9531 816.3594,750.5625 L816.3594,752.0156 Q816.3594,752.625 816.125,752.8906 Q815.8906,753.1563 815.5156,753.1563 Q815.1719,753.1563 814.9688,752.9531 Q814.7656,752.7656 814.6563,752.25 Q814.6094,751.8906 814.4219,751.7031 Q814.0938,751.3281 813.4844,751.1094 Q812.875,750.8906 812.25,750.8906 Q811.4844,750.8906 810.8516,751.2188 Q810.2188,751.5469 809.7266,752.2969 Q809.2344,753.0469 809.2344,754.0781 L809.2344,755.1719 Q809.2344,756.4063 810.125,757.2266 Q811.0156,758.0469 812.6094,758.0469 Q813.5469,758.0469 814.2031,757.7969 Q814.5938,757.6406 815.0156,757.2031 Q815.2813,756.9375 815.4297,756.8594 Q815.5781,756.7813 815.7813,756.7813 Q816.1094,756.7813 816.3672,757.0391 Q816.625,757.2969 816.625,757.6406 Q816.625,757.9844 816.2813,758.3906 Q815.7813,758.9688 814.9844,759.2969 Q813.9063,759.75 812.6094,759.75 Q811.0938,759.75 809.8906,759.125 Q808.9063,758.625 808.2188,757.5547 Q807.5313,756.4844 807.5313,755.2031 L807.5313,754.0469 Q807.5313,752.7188 808.1484,751.5703 Q808.7656,750.4219 809.8594,749.8047 Q810.9531,749.1875 812.1875,749.1875 Q812.9219,749.1875 813.5703,749.3516 Q814.2188,749.5156 814.7656,749.875 Z "/><text fill="#000000" font-family="sans-serif" font-size="12" lengthAdjust="spacingAndGlyphs" textLength="102" x="826" y="758.9102">PolygonAnnotation</text><line style="stroke: #000000; stroke-width: 1.5;" x1="798" x2="930" y1="770" y2="770"/><line style="stroke: #000000; stroke-width: 1.5;" x1="798" x2="930" y1="778" y2="778"/><!--class CaretAnnotation--><rect fill="#FFFFFF" filter="url(#fvlzsjix9w3im)" height="48" id="CaretAnnotation" style="stroke: #000000; stroke-width: 1.5;" width="120" x="966" y="629"/><ellipse cx="981" cy="645" fill="#FFFFFF" rx="11" ry="11" style="stroke: #000000; stroke-width: 1.0;"/><path d="M983.7656,640.875 Q983.9219,640.6563 984.1094,640.5469 Q984.2969,640.4375 984.5156,640.4375 Q984.8906,640.4375 985.125,640.6953 Q985.3594,640.9531 985.3594,641.5625 L985.3594,643.0156 Q985.3594,643.625 985.125,643.8906 Q984.8906,644.1563 984.5156,644.1563 Q984.1719,644.1563 983.9688,643.9531 Q983.7656,643.7656 983.6563,643.25 Q983.6094,642.8906 983.4219,642.7031 Q983.0938,642.3281 982.4844,642.1094 Q981.875,641.8906 981.25,641.8906 Q980.4844,641.8906 979.8516,642.2188 Q979.2188,642.5469 978.7266,643.2969 Q978.2344,644.0469 978.2344,645.0781 L978.2344,646.1719 Q978.2344,647.4063 979.125,648.2266 Q980.0156,649.0469 981.6094,649.0469 Q982.5469,649.0469 983.2031,648.7969 Q983.5938,648.6406 984.0156,648.2031 Q984.2813,647.9375 984.4297,647.8594 Q984.5781,647.7813 984.7813,647.7813 Q985.1094,647.7813 985.3672,648.0391 Q985.625,648.2969 985.625,648.6406 Q985.625,648.9844 985.2813,649.3906 Q984.7813,649.9688 983.9844,650.2969 Q982.9063,650.75 981.6094,650.75 Q980.0938,650.75 978.8906,650.125 Q977.9063,649.625 977.2188,648.5547 Q976.5313,647.4844 976.5313,646.2031 L976.5313,645.0469 Q976.5313,643.7188 977.1484,642.5703 Q977.7656,641.4219 978.8594,640.8047 Q979.9531,640.1875 981.1875,640.1875 Q981.9219,640.1875 982.5703,640.3516 Q983.2188,640.5156 983.7656,640.875 Z "/><text fill="#000000" font-family="sans-serif" font-size="12" lengthAdjust="spacingAndGlyphs" textLength="88" x="995" y="649.9102">CaretAnnotation</text><line style="stroke: #000000; stroke-width: 1.5;" x1="967" x2="1085" y1="661" y2="661"/><line style="stroke: #000000; stroke-width: 1.5;" x1="967" x2="1085" y1="669" y2="669"/><!--class InkAnnotation--><rect fill="#FFFFFF" filter="url(#fvlzsjix9w3im)" height="48" id="InkAnnotation" style="stroke: #000000; stroke-width: 1.5;" width="106" x="1121" y="629"/><ellipse cx="1136" cy="645" fill="#FFFFFF" rx="11" ry="11" style="stroke: #000000; stroke-width: 1.0;"/><path d="M1138.7656,640.875 Q1138.9219,640.6563 1139.1094,640.5469 Q1139.2969,640.4375 1139.5156,640.4375 Q1139.8906,640.4375 1140.125,640.6953 Q1140.3594,640.9531 1140.3594,641.5625 L1140.3594,643.0156 Q1140.3594,643.625 1140.125,643.8906 Q1139.8906,644.1563 1139.5156,644.1563 Q1139.1719,644.1563 1138.9688,643.9531 Q1138.7656,643.7656 1138.6563,643.25 Q1138.6094,642.8906 1138.4219,642.7031 Q1138.0938,642.3281 1137.4844,642.1094 Q1136.875,641.8906 1136.25,641.8906 Q1135.4844,641.8906 1134.8516,642.2188 Q1134.2188,642.5469 1133.7266,643.2969 Q1133.2344,644.0469 1133.2344,645.0781 L1133.2344,646.1719 Q1133.2344,647.4063 1134.125,648.2266 Q1135.0156,649.0469 1136.6094,649.0469 Q1137.5469,649.0469 1138.2031,648.7969 Q1138.5938,648.6406 1139.0156,648.2031 Q1139.2813,647.9375 1139.4297,647.8594 Q1139.5781,647.7813 1139.7813,647.7813 Q1140.1094,647.7813 1140.3672,648.0391 Q1140.625,648.2969 1140.625,648.6406 Q1140.625,648.9844 1140.2813,649.3906 Q1139.7813,649.9688 1138.9844,650.2969 Q1137.9063,650.75 1136.6094,650.75 Q1135.0938,650.75 1133.8906,650.125 Q1132.9063,649.625 1132.2188,648.5547 Q1131.5313,647.4844 1131.5313,646.2031 L1131.5313,645.0469 Q1131.5313,643.7188 1132.1484,642.5703 Q1132.7656,641.4219 1133.8594,640.8047 Q1134.9531,640.1875 1136.1875,640.1875 Q1136.9219,640.1875 1137.5703,640.3516 Q1138.2188,640.5156 1138.7656,640.875 Z "/><text fill="#000000" font-family="sans-serif" font-size="12" lengthAdjust="spacingAndGlyphs" textLength="74" x="1150" y="649.9102">InkAnnotation</text><line style="stroke: #000000; stroke-width: 1.5;" x1="1122" x2="1226" y1="661" y2="661"/><line style="stroke: #000000; stroke-width: 1.5;" x1="1122" x2="1226" y1="669" y2="669"/><!--class HighlightAnnotation--><rect fill="#FFFFFF" filter="url(#fvlzsjix9w3im)" height="48" id="HighlightAnnotation" style="stroke: #000000; stroke-width: 1.5;" width="139" x="1262.5" y="629"/><ellipse cx="1277.5" cy="645" fill="#FFFFFF" rx="11" ry="11" style="stroke: #000000; stroke-width: 1.0;"/><path d="M1280.2656,640.875 Q1280.4219,640.6563 1280.6094,640.5469 Q1280.7969,640.4375 1281.0156,640.4375 Q1281.3906,640.4375 1281.625,640.6953 Q1281.8594,640.9531 1281.8594,641.5625 L1281.8594,643.0156 Q1281.8594,643.625 1281.625,643.8906 Q1281.3906,644.1563 1281.0156,644.1563 Q1280.6719,644.1563 1280.4688,643.9531 Q1280.2656,643.7656 1280.1563,643.25 Q1280.1094,642.8906 1279.9219,642.7031 Q1279.5938,642.3281 1278.9844,642.1094 Q1278.375,641.8906 1277.75,641.8906 Q1276.9844,641.8906 1276.3516,642.2188 Q1275.7188,642.5469 1275.2266,643.2969 Q1274.7344,644.0469 1274.7344,645.0781 L1274.7344,646.1719 Q1274.7344,647.4063 1275.625,648.2266 Q1276.5156,649.0469 1278.1094,649.0469 Q1279.0469,649.0469 1279.7031,648.7969 Q1280.0938,648.6406 1280.5156,648.2031 Q1280.7813,647.9375 1280.9297,647.8594 Q1281.0781,647.7813 1281.2813,647.7813 Q1281.6094,647.7813 1281.8672,648.0391 Q1282.125,648.2969 1282.125,648.6406 Q1282.125,648.9844 1281.7813,649.3906 Q1281.2813,649.9688 1280.4844,650.2969 Q1279.4063,650.75 1278.1094,650.75 Q1276.5938,650.75 1275.3906,650.125 Q1274.4063,649.625 1273.7188,648.5547 Q1273.0313,647.4844 1273.0313,646.2031 L1273.0313,645.0469 Q1273.0313,643.7188 1273.6484,642.5703 Q1274.2656,641.4219 1275.3594,640.8047 Q1276.4531,640.1875 1277.6875,640.1875 Q1278.4219,640.1875 1279.0703,640.3516 Q1279.7188,640.5156 1280.2656,640.875 Z "/><text fill="#000000" font-family="sans-serif" font-size="12" lengthAdjust="spacingAndGlyphs" textLength="107" x="1291.5" y="649.9102">HighlightAnnotation</text><line style="stroke: #000000; stroke-width: 1.5;" x1="1263.5" x2="1400.5" y1="661" y2="661"/><line style="stroke: #000000; stroke-width: 1.5;" x1="1263.5" x2="1400.5" y1="669" y2="669"/><!--class UnderlineAnnotation--><rect fill="#FFFFFF" filter="url(#fvlzsjix9w3im)" height="48" id="UnderlineAnnotation" style="stroke: #000000; stroke-width: 1.5;" width="144" x="1437" y="629"/><ellipse cx="1452" cy="645" fill="#FFFFFF" rx="11" ry="11" style="stroke: #000000; stroke-width: 1.0;"/><path d="M1454.7656,640.875 Q1454.9219,640.6563 1455.1094,640.5469 Q1455.2969,640.4375 1455.5156,640.4375 Q1455.8906,640.4375 1456.125,640.6953 Q1456.3594,640.9531 1456.3594,641.5625 L1456.3594,643.0156 Q1456.3594,643.625 1456.125,643.8906 Q1455.8906,644.1563 1455.5156,644.1563 Q1455.1719,644.1563 1454.9688,643.9531 Q1454.7656,643.7656 1454.6563,643.25 Q1454.6094,642.8906 1454.4219,642.7031 Q1454.0938,642.3281 1453.4844,642.1094 Q1452.875,641.8906 1452.25,641.8906 Q1451.4844,641.8906 1450.8516,642.2188 Q1450.2188,642.5469 1449.7266,643.2969 Q1449.2344,644.0469 1449.2344,645.0781 L1449.2344,646.1719 Q1449.2344,647.4063 1450.125,648.2266 Q1451.0156,649.0469 1452.6094,649.0469 Q1453.5469,649.0469 1454.2031,648.7969 Q1454.5938,648.6406 1455.0156,648.2031 Q1455.2813,647.9375 1455.4297,647.8594 Q1455.5781,647.7813 1455.7813,647.7813 Q1456.1094,647.7813 1456.3672,648.0391 Q1456.625,648.2969 1456.625,648.6406 Q1456.625,648.9844 1456.2813,649.3906 Q1455.7813,649.9688 1454.9844,650.2969 Q1453.9063,650.75 1452.6094,650.75 Q1451.0938,650.75 1449.8906,650.125 Q1448.9063,649.625 1448.2188,648.5547 Q1447.5313,647.4844 1447.5313,646.2031 L1447.5313,645.0469 Q1447.5313,643.7188 1448.1484,642.5703 Q1448.7656,641.4219 1449.8594,640.8047 Q1450.9531,640.1875 1452.1875,640.1875 Q1452.9219,640.1875 1453.5703,640.3516 Q1454.2188,640.5156 1454.7656,640.875 Z "/><text fill="#000000" font-family="sans-serif" font-size="12" lengthAdjust="spacingAndGlyphs" textLength="112" x="1466" y="649.9102">UnderlineAnnotation</text><line style="stroke: #000000; stroke-width: 1.5;" x1="1438" x2="1580" y1="661" y2="661"/><line style="stroke: #000000; stroke-width: 1.5;" x1="1438" x2="1580" y1="669" y2="669"/><!--class SquigglyAnnotation--><rect fill="#FFFFFF" filter="url(#fvlzsjix9w3im)" height="48" id="SquigglyAnnotation" style="stroke: #000000; stroke-width: 1.5;" width="137" x="1616.5" y="629"/><ellipse cx="1631.5" cy="645" fill="#FFFFFF" rx="11" ry="11" style="stroke: #000000; stroke-width: 1.0;"/><path d="M1634.2656,640.875 Q1634.4219,640.6563 1634.6094,640.5469 Q1634.7969,640.4375 1635.0156,640.4375 Q1635.3906,640.4375 1635.625,640.6953 Q1635.8594,640.9531 1635.8594,641.5625 L1635.8594,643.0156 Q1635.8594,643.625 1635.625,643.8906 Q1635.3906,644.1563 1635.0156,644.1563 Q1634.6719,644.1563 1634.4688,643.9531 Q1634.2656,643.7656 1634.1563,643.25 Q1634.1094,642.8906 1633.9219,642.7031 Q1633.5938,642.3281 1632.9844,642.1094 Q1632.375,641.8906 1631.75,641.8906 Q1630.9844,641.8906 1630.3516,642.2188 Q1629.7188,642.5469 1629.2266,643.2969 Q1628.7344,644.0469 1628.7344,645.0781 L1628.7344,646.1719 Q1628.7344,647.4063 1629.625,648.2266 Q1630.5156,649.0469 1632.1094,649.0469 Q1633.0469,649.0469 1633.7031,648.7969 Q1634.0938,648.6406 1634.5156,648.2031 Q1634.7813,647.9375 1634.9297,647.8594 Q1635.0781,647.7813 1635.2813,647.7813 Q1635.6094,647.7813 1635.8672,648.0391 Q1636.125,648.2969 1636.125,648.6406 Q1636.125,648.9844 1635.7813,649.3906 Q1635.2813,649.9688 1634.4844,650.2969 Q1633.4063,650.75 1632.1094,650.75 Q1630.5938,650.75 1629.3906,650.125 Q1628.4063,649.625 1627.7188,648.5547 Q1627.0313,647.4844 1627.0313,646.2031 L1627.0313,645.0469 Q1627.0313,643.7188 1627.6484,642.5703 Q1628.2656,641.4219 1629.3594,640.8047 Q1630.4531,640.1875 1631.6875,640.1875 Q1632.4219,640.1875 1633.0703,640.3516 Q1633.7188,640.5156 1634.2656,640.875 Z "/><text fill="#000000" font-family="sans-serif" font-size="12" lengthAdjust="spacingAndGlyphs" textLength="105" x="1645.5" y="649.9102">SquigglyAnnotation</text><line style="stroke: #000000; stroke-width: 1.5;" x1="1617.5" x2="1752.5" y1="661" y2="661"/><line style="stroke: #000000; stroke-width: 1.5;" x1="1617.5" x2="1752.5" y1="669" y2="669"/><!--class StrikeOutAnnotation--><rect fill="#FFFFFF" filter="url(#fvlzsjix9w3im)" height="48" id="StrikeOutAnnotation" style="stroke: #000000; stroke-width: 1.5;" width="140" x="1789" y="629"/><ellipse cx="1804" cy="645" fill="#FFFFFF" rx="11" ry="11" style="stroke: #000000; stroke-width: 1.0;"/><path d="M1806.7656,640.875 Q1806.9219,640.6563 1807.1094,640.5469 Q1807.2969,640.4375 1807.5156,640.4375 Q1807.8906,640.4375 1808.125,640.6953 Q1808.3594,640.9531 1808.3594,641.5625 L1808.3594,643.0156 Q1808.3594,643.625 1808.125,643.8906 Q1807.8906,644.1563 1807.5156,644.1563 Q1807.1719,644.1563 1806.9688,643.9531 Q1806.7656,643.7656 1806.6563,643.25 Q1806.6094,642.8906 1806.4219,642.7031 Q1806.0938,642.3281 1805.4844,642.1094 Q1804.875,641.8906 1804.25,641.8906 Q1803.4844,641.8906 1802.8516,642.2188 Q1802.2188,642.5469 1801.7266,643.2969 Q1801.2344,644.0469 1801.2344,645.0781 L1801.2344,646.1719 Q1801.2344,647.4063 1802.125,648.2266 Q1803.0156,649.0469 1804.6094,649.0469 Q1805.5469,649.0469 1806.2031,648.7969 Q1806.5938,648.6406 1807.0156,648.2031 Q1807.2813,647.9375 1807.4297,647.8594 Q1807.5781,647.7813 1807.7813,647.7813 Q1808.1094,647.7813 1808.3672,648.0391 Q1808.625,648.2969 1808.625,648.6406 Q1808.625,648.9844 1808.2813,649.3906 Q1807.7813,649.9688 1806.9844,650.2969 Q1805.9063,650.75 1804.6094,650.75 Q1803.0938,650.75 1801.8906,650.125 Q1800.9063,649.625 1800.2188,648.5547 Q1799.5313,647.4844 1799.5313,646.2031 L1799.5313,645.0469 Q1799.5313,643.7188 1800.1484,642.5703 Q1800.7656,641.4219 1801.8594,640.8047 Q1802.9531,640.1875 1804.1875,640.1875 Q1804.9219,640.1875 1805.5703,640.3516 Q1806.2188,640.5156 1806.7656,640.875 Z "/><text fill="#000000" font-family="sans-serif" font-size="12" lengthAdjust="spacingAndGlyphs" textLength="108" x="1818" y="649.9102">StrikeOutAnnotation</text><line style="stroke: #000000; stroke-width: 1.5;" x1="1790" x2="1928" y1="661" y2="661"/><line style="stroke: #000000; stroke-width: 1.5;" x1="1790" x2="1928" y1="669" y2="669"/><!--class StampAnnotation--><rect fill="#FFFFFF" filter="url(#fvlzsjix9w3im)" height="48" id="StampAnnotation" style="stroke: #000000; stroke-width: 1.5;" width="126" x="1964" y="629"/><ellipse cx="1979" cy="645" fill="#FFFFFF" rx="11" ry="11" style="stroke: #000000; stroke-width: 1.0;"/><path d="M1981.7656,640.875 Q1981.9219,640.6563 1982.1094,640.5469 Q1982.2969,640.4375 1982.5156,640.4375 Q1982.8906,640.4375 1983.125,640.6953 Q1983.3594,640.9531 1983.3594,641.5625 L1983.3594,643.0156 Q1983.3594,643.625 1983.125,643.8906 Q1982.8906,644.1563 1982.5156,644.1563 Q1982.1719,644.1563 1981.9688,643.9531 Q1981.7656,643.7656 1981.6563,643.25 Q1981.6094,642.8906 1981.4219,642.7031 Q1981.0938,642.3281 1980.4844,642.1094 Q1979.875,641.8906 1979.25,641.8906 Q1978.4844,641.8906 1977.8516,642.2188 Q1977.2188,642.5469 1976.7266,643.2969 Q1976.2344,644.0469 1976.2344,645.0781 L1976.2344,646.1719 Q1976.2344,647.4063 1977.125,648.2266 Q1978.0156,649.0469 1979.6094,649.0469 Q1980.5469,649.0469 1981.2031,648.7969 Q1981.5938,648.6406 1982.0156,648.2031 Q1982.2813,647.9375 1982.4297,647.8594 Q1982.5781,647.7813 1982.7813,647.7813 Q1983.1094,647.7813 1983.3672,648.0391 Q1983.625,648.2969 1983.625,648.6406 Q1983.625,648.9844 1983.2813,649.3906 Q1982.7813,649.9688 1981.9844,650.2969 Q1980.9063,650.75 1979.6094,650.75 Q1978.0938,650.75 1976.8906,650.125 Q1975.9063,649.625 1975.2188,648.5547 Q1974.5313,647.4844 1974.5313,646.2031 L1974.5313,645.0469 Q1974.5313,643.7188 1975.1484,642.5703 Q1975.7656,641.4219 1976.8594,640.8047 Q1977.9531,640.1875 1979.1875,640.1875 Q1979.9219,640.1875 1980.5703,640.3516 Q1981.2188,640.5156 1981.7656,640.875 Z "/><text fill="#000000" font-family="sans-serif" font-size="12" lengthAdjust="spacingAndGlyphs" textLength="94" x="1993" y="649.9102">StampAnnotation</text><line style="stroke: #000000; stroke-width: 1.5;" x1="1965" x2="2089" y1="661" y2="661"/><line style="stroke: #000000; stroke-width: 1.5;" x1="1965" x2="2089" y1="669" y2="669"/><!--class FileAttachmentAnnotation--><rect fill="#FFFFFF" filter="url(#fvlzsjix9w3im)" height="48" id="FileAttachmentAnnotation" style="stroke: #000000; stroke-width: 1.5;" width="171" x="2125.5" y="629"/><ellipse cx="2140.5" cy="645" fill="#FFFFFF" rx="11" ry="11" style="stroke: #000000; stroke-width: 1.0;"/><path d="M2143.2656,640.875 Q2143.4219,640.6563 2143.6094,640.5469 Q2143.7969,640.4375 2144.0156,640.4375 Q2144.3906,640.4375 2144.625,640.6953 Q2144.8594,640.9531 2144.8594,641.5625 L2144.8594,643.0156 Q2144.8594,643.625 2144.625,643.8906 Q2144.3906,644.1563 2144.0156,644.1563 Q2143.6719,644.1563 2143.4688,643.9531 Q2143.2656,643.7656 2143.1563,643.25 Q2143.1094,642.8906 2142.9219,642.7031 Q2142.5938,642.3281 2141.9844,642.1094 Q2141.375,641.8906 2140.75,641.8906 Q2139.9844,641.8906 2139.3516,642.2188 Q2138.7188,642.5469 2138.2266,643.2969 Q2137.7344,644.0469 2137.7344,645.0781 L2137.7344,646.1719 Q2137.7344,647.4063 2138.625,648.2266 Q2139.5156,649.0469 2141.1094,649.0469 Q2142.0469,649.0469 2142.7031,648.7969 Q2143.0938,648.6406 2143.5156,648.2031 Q2143.7813,647.9375 2143.9297,647.8594 Q2144.0781,647.7813 2144.2813,647.7813 Q2144.6094,647.7813 2144.8672,648.0391 Q2145.125,648.2969 2145.125,648.6406 Q2145.125,648.9844 2144.7813,649.3906 Q2144.2813,649.9688 2143.4844,650.2969 Q2142.4063,650.75 2141.1094,650.75 Q2139.5938,650.75 2138.3906,650.125 Q2137.4063,649.625 2136.7188,648.5547 Q2136.0313,647.4844 2136.0313,646.2031 L2136.0313,645.0469 Q2136.0313,643.7188 2136.6484,642.5703 Q2137.2656,641.4219 2138.3594,640.8047 Q2139.4531,640.1875 2140.6875,640.1875 Q2141.4219,640.1875 2142.0703,640.3516 Q2142.7188,640.5156 2143.2656,640.875 Z "/><text fill="#000000" font-family="sans-serif" font-size="12" lengthAdjust="spacingAndGlyphs" textLength="139" x="2154.5" y="649.9102">FileAttachmentAnnotation</text><line style="stroke: #000000; stroke-width: 1.5;" x1="2126.5" x2="2295.5" y1="661" y2="661"/><line style="stroke: #000000; stroke-width: 1.5;" x1="2126.5" x2="2295.5" y1="669" y2="669"/><!--link AnnotationFactory to Annotation--><path d="M2646,146.284 C2646,172.793 2646,206.35 2646,238.586 " fill="none" id="AnnotationFactory-&gt;Annotation" style="stroke: #000000; stroke-width: 1.0;"/><polygon fill="none" points="2653,238.95,2646,258.95,2639,238.95,2653,238.95" style="stroke: #000000; stroke-width: 1.0;"/><text fill="#000000" font-family="sans-serif" font-size="13" lengthAdjust="spacingAndGlyphs" textLength="57" x="2647" y="225.4951">creates</text><!--reverse link Annotation to MarkupAnnotation--><path d="M2507.64,370.201 C2213.47,406.772 1531.8,491.517 1274.64,523.489 " fill="none" id="Annotation&lt;-MarkupAnnotation" style="stroke: #000000; stroke-width: 1.0;"/><polygon fill="none" points="2507.01,363.226,2527.72,367.705,2508.73,377.119,2507.01,363.226" style="stroke: #000000; stroke-width: 1.0;"/><!--reverse link Annotation to WidgetAnnotation--><path d="M2561.61,460.993 C2548.73,477.477 2536.43,493.222 2526.45,505.993 " fill="none" id="Annotation&lt;-WidgetAnnotation" style="stroke: #000000; stroke-width: 1.0;"/><polygon fill="none" points="2556.25,456.485,2574.08,445.036,2567.28,465.105,2556.25,456.485" style="stroke: #000000; stroke-width: 1.0;"/><!--reverse link WidgetAnnotation to TextWidgetAnnotation--><path d="M2464.46,583.764 C2451.43,599.245 2437.42,615.877 2426.5,628.845 " fill="none" id="WidgetAnnotation&lt;-TextWidgetAnnotation" style="stroke: #000000; stroke-width: 1.0;"/><polygon fill="none" points="2459.29,579.04,2477.53,568.251,2470,588.058,2459.29,579.04" style="stroke: #000000; stroke-width: 1.0;"/><!--reverse link WidgetAnnotation to ButtonWidgetAnnotation--><path d="M2541.54,583.764 C2554.57,599.245 2568.58,615.877 2579.5,628.845 " fill="none" id="WidgetAnnotation&lt;-ButtonWidgetAnnotation" style="stroke: #000000; stroke-width: 1.0;"/><polygon fill="none" points="2536,588.058,2528.47,568.251,2546.71,579.04,2536,588.058" style="stroke: #000000; stroke-width: 1.0;"/><!--reverse link WidgetAnnotation to ChoiceWidgetAnnotation--><path d="M2599.99,575.353 C2645.9,593.037 2699.28,613.596 2739.19,628.967 " fill="none" id="WidgetAnnotation&lt;-ChoiceWidgetAnnotation" style="stroke: #000000; stroke-width: 1.0;"/><polygon fill="none" points="2597.31,581.822,2581.16,568.101,2602.34,568.757,2597.31,581.822" style="stroke: #000000; stroke-width: 1.0;"/><!--reverse link MarkupAnnotation to TextAnnotation--><path d="M1052.95,540.237 C858.069,545.706 463.467,564.503 136,629 C130.192,630.144 124.195,631.574 118.244,633.158 " fill="none" id="MarkupAnnotation&lt;-TextAnnotation" style="stroke: #000000; stroke-width: 1.0;"/><polygon fill="none" points="1052.98,533.234,1073.16,539.698,1053.35,547.229,1052.98,533.234" style="stroke: #000000; stroke-width: 1.0;"/><!--reverse link Annotation to LinkAnnotation--><path d="M2675.23,464.444 C2680.05,482.803 2684.57,500.036 2687.96,512.988 " fill="none" id="Annotation&lt;-LinkAnnotation" style="stroke: #000000; stroke-width: 1.0;"/><polygon fill="none" points="2668.44,466.158,2670.14,445.036,2681.99,462.606,2668.44,466.158" style="stroke: #000000; stroke-width: 1.0;"/><!--reverse link Annotation to PopupAnnotation--><path d="M2763.15,458.612 C2785.91,479.127 2807.59,498.672 2823.47,512.988 " fill="none" id="Annotation&lt;-PopupAnnotation" style="stroke: #000000; stroke-width: 1.0;"/><polygon fill="none" points="2758.26,463.627,2748.09,445.036,2767.64,453.228,2758.26,463.627" style="stroke: #000000; stroke-width: 1.0;"/><!--reverse link MarkupAnnotation to FreeTextAnnotation--><path d="M1053.24,544.7 C885.092,555.386 571.413,580.247 308,629 C302.377,630.041 296.583,631.261 290.785,632.587 " fill="none" id="MarkupAnnotation&lt;-FreeTextAnnotation" style="stroke: #000000; stroke-width: 1.0;"/><polygon fill="none" points="1052.86,537.71,1073.26,543.452,1053.73,551.683,1052.86,537.71" style="stroke: #000000; stroke-width: 1.0;"/><!--reverse link MarkupAnnotation to LineAnnotation--><path d="M1053.34,546.824 C909.963,558.798 664.077,584.041 457,629 C451.478,630.199 445.776,631.623 440.102,633.167 " fill="none" id="MarkupAnnotation&lt;-LineAnnotation" style="stroke: #000000; stroke-width: 1.0;"/><polygon fill="none" points="1052.8,539.845,1073.31,545.187,1053.95,553.798,1052.8,539.845" style="stroke: #000000; stroke-width: 1.0;"/><!--reverse link MarkupAnnotation to SquareAnnotation--><path d="M1053.48,553.969 C941.157,569.771 769.326,596.299 622,629 C616.515,630.217 610.852,631.58 605.184,633.018 " fill="none" id="MarkupAnnotation&lt;-SquareAnnotation" style="stroke: #000000; stroke-width: 1.0;"/><polygon fill="none" points="1052.62,547.021,1073.39,551.192,1054.55,560.887,1052.62,547.021" style="stroke: #000000; stroke-width: 1.0;"/><!--reverse link MarkupAnnotation to CircleAnnotation--><path d="M1053.4,564.007 C975.189,581.328 871.237,605.203 780,629 C774.195,630.514 768.168,632.151 762.148,633.828 " fill="none" id="MarkupAnnotation&lt;-CircleAnnotation" style="stroke: #000000; stroke-width: 1.0;"/><polygon fill="none" points="1052.18,557.109,1073.22,559.637,1055.19,570.78,1052.18,557.109" style="stroke: #000000; stroke-width: 1.0;"/><!--reverse link MarkupAnnotation to PolylineAnnotation--><path d="M1073.07,575.117 C1024.84,592.854 968.619,613.527 926.635,628.967 " fill="none" id="MarkupAnnotation&lt;-PolylineAnnotation" style="stroke: #000000; stroke-width: 1.0;"/><polygon fill="none" points="1070.96,568.434,1092.15,568.101,1075.79,581.574,1070.96,568.434" style="stroke: #000000; stroke-width: 1.0;"/><!--reverse link PolylineAnnotation to PolygonAnnotation--><path d="M864,697.5778 C864,711.3622 864,726.0574 864,737.8279 " fill="none" id="PolylineAnnotation&lt;-PolygonAnnotation" style="stroke: #000000; stroke-width: 1.0;"/><polygon fill="none" points="857,697.2174,864,677.217,871,697.2174,857,697.2174" style="stroke: #000000; stroke-width: 1.0;"/><!--reverse link MarkupAnnotation to CaretAnnotation--><path d="M1118.69,580.604 C1097.47,596.952 1074.05,614.989 1056.06,628.845 " fill="none" id="MarkupAnnotation&lt;-CaretAnnotation" style="stroke: #000000; stroke-width: 1.0;"/><polygon fill="none" points="1114.61,574.91,1134.73,568.251,1123.15,586.001,1114.61,574.91" style="stroke: #000000; stroke-width: 1.0;"/><!--reverse link MarkupAnnotation to InkAnnotation--><path d="M1174,588.686 C1174,602.706 1174,617.242 1174,628.845 " fill="none" id="MarkupAnnotation&lt;-InkAnnotation" style="stroke: #000000; stroke-width: 1.0;"/><polygon fill="none" points="1167,588.251,1174,568.251,1181,588.251,1167,588.251" style="stroke: #000000; stroke-width: 1.0;"/><!--reverse link MarkupAnnotation to HighlightAnnotation--><path d="M1232.38,580.122 C1255.21,596.596 1280.52,614.853 1299.91,628.845 " fill="none" id="MarkupAnnotation&lt;-HighlightAnnotation" style="stroke: #000000; stroke-width: 1.0;"/><polygon fill="none" points="1228.05,585.63,1215.93,568.251,1236.24,574.276,1228.05,585.63" style="stroke: #000000; stroke-width: 1.0;"/><!--reverse link MarkupAnnotation to UnderlineAnnotation--><path d="M1281.69,574.646 C1334.11,592.487 1395.54,613.39 1441.31,628.967 " fill="none" id="MarkupAnnotation&lt;-UnderlineAnnotation" style="stroke: #000000; stroke-width: 1.0;"/><polygon fill="none" points="1279.13,581.171,1262.46,568.101,1283.64,567.918,1279.13,581.171" style="stroke: #000000; stroke-width: 1.0;"/><!--reverse link MarkupAnnotation to SquigglyAnnotation--><path d="M1294.36,562.26 C1379.42,579.788 1495.98,604.582 1598,629 C1603.93,630.418 1610.06,631.938 1616.22,633.496 " fill="none" id="MarkupAnnotation&lt;-SquigglyAnnotation" style="stroke: #000000; stroke-width: 1.0;"/><polygon fill="none" points="1292.72,569.068,1274.53,558.188,1295.53,555.354,1292.72,569.068" style="stroke: #000000; stroke-width: 1.0;"/><!--reverse link MarkupAnnotation to StrikeOutAnnotation--><path d="M1294.57,552.62 C1415.62,568.179 1607.15,595.197 1771,629 C1776.72,630.181 1782.63,631.5 1788.55,632.894 " fill="none" id="MarkupAnnotation&lt;-StrikeOutAnnotation" style="stroke: #000000; stroke-width: 1.0;"/><polygon fill="none" points="1293.61,559.554,1274.65,550.082,1295.38,545.667,1293.61,559.554" style="stroke: #000000; stroke-width: 1.0;"/><!--reverse link MarkupAnnotation to StampAnnotation--><path d="M1295.04,546.27 C1447.84,558.079 1718.25,583.543 1946,629 C1951.73,630.145 1957.65,631.493 1963.56,632.953 " fill="none" id="MarkupAnnotation&lt;-StampAnnotation" style="stroke: #000000; stroke-width: 1.0;"/><polygon fill="none" points="1294.15,553.222,1274.73,544.727,1295.21,539.262,1294.15,553.222" style="stroke: #000000; stroke-width: 1.0;"/><!--reverse link MarkupAnnotation to FileAttachmentAnnotation--><path d="M1294.75,545.057 C1473.17,556.55 1817.37,582.8 2107,629 C2113.03,629.961 2119.23,631.057 2125.46,632.236 " fill="none" id="MarkupAnnotation&lt;-FileAttachmentAnnotation" style="stroke: #000000; stroke-width: 1.0;"/><polygon fill="none" points="1294.13,552.032,1274.61,543.777,1295.02,538.06,1294.13,552.032" style="stroke: #000000; stroke-width: 1.0;"/><!--
@startuml
skinparam classAttributeIconSize 0
skinparam class {
    BackgroundColor White
    BorderColor Black
    ArrowColor Black
}
skinparam StereotypeC {
    BackgroundColor White
}

skinparam StereotypeIBackgroundColor White

AnnotationFactory - -|> Annotation : <<creates>>

class AnnotationFactory {
    {static}create(xref : XRef, ref : object, pdfManager : PDFManager, idFactory : Object) : Promise
    {static}_create(xref : XRef, ref : object, pdfManager : PDFManager, idFactory : Object) : Promise
    getQuadPoints(dict : Dict, rect : Array) : Array
    getTransformMatrix(rect : Array, bbox : Dict, matrix : Array) : Array
}

class Annotation {
    data : object
    +setContents(contents : String)
    +setModificationDate(modificationData : String)
    +setFlags(flags : Number)
    +hasFlag(flag : Number) : Boolean
    +setRectangle(rectangle : Array)
    +setColor(color : Array)
    +setBorderStyle(borderStyle : Dict)
    +setAppearance(dict : Dict)
    {method}...
}

class AnnotationBorderStyle {
    width : Number
    style : String
    dashArray : Array
    horizontalCornerRadius : Number
    verticalCornerRadius : Number
    +setWidth(width : Number, rect : Array)
    +setDashArray(dashArray : Array)
    +setHorizontalCornerRadius(radius : Number)
    +setVerticalCornerRadius(radius : Number)
}

class MarkupAnnotation extends Annotation {
    +setCreationDate(creationDate : String)
}

class WidgetAnnotation extends Annotation {
    +hasFieldFlag(flag : Number) : Boolean
}

class TextWidgetAnnotation extends WidgetAnnotation

class ButtonWidgetAnnotation extends WidgetAnnotation

class ChoiceWidgetAnnotation extends WidgetAnnotation

class TextAnnotation extends MarkupAnnotation

class LinkAnnotation extends Annotation

class PopupAnnotation extends Annotation

class FreeTextAnnotation extends MarkupAnnotation

class LineAnnotation extends MarkupAnnotation

class SquareAnnotation extends MarkupAnnotation

class CircleAnnotation extends MarkupAnnotation

class PolylineAnnotation extends MarkupAnnotation

class PolygonAnnotation extends PolylineAnnotation

class CaretAnnotation extends MarkupAnnotation

class InkAnnotation extends MarkupAnnotation

class HighlightAnnotation extends MarkupAnnotation

class UnderlineAnnotation extends MarkupAnnotation

class SquigglyAnnotation extends MarkupAnnotation

class StrikeOutAnnotation extends MarkupAnnotation

class StampAnnotation extends MarkupAnnotation

class FileAttachmentAnnotation extends MarkupAnnotation

@enduml

PlantUML version 1.2019.09(Mon Aug 26 12:19:51 EDT 2019)
(GPL source distribution)
Java Runtime: Java(TM) SE Runtime Environment
JVM: Java HotSpot(TM) 64-Bit Server VM
Java Version: 1.8.0_191-b12
Operating System: Windows 10
OS Version: 10.0
Default Encoding: Cp1252
Language: en
Country: CA
--></g></svg>