<?xml version="1.0" encoding="UTF-8" standalone="no"?><svg xmlns="http://www.w3.org/2000/svg" xmlns:xlink="http://www.w3.org/1999/xlink" contentScriptType="application/ecmascript" contentStyleType="text/css" height="801px" preserveAspectRatio="none" style="width:2893px;height:801px;" version="1.1" viewBox="0 0 2893 801" width="2893px" zoomAndPan="magnify"><defs><filter height="300%" id="f1cwgu0si0ob5b" width="300%" x="-1" y="-1"><feGaussianBlur result="blurOut" stdDeviation="2.0"/><feColorMatrix in="blurOut" result="blurOut2" type="matrix" values="0 0 0 0 0 0 0 0 0 0 0 0 0 0 0 0 0 0 .4 0"/><feOffset dx="4.0" dy="4.0" in="blurOut2" result="blurOut3"/><feBlend in="SourceGraphic" in2="blurOut3" mode="normal"/></filter></defs><g><!--class Annotation--><rect fill="#FFFFFF" filter="url(#f1cwgu0si0ob5b)" height="186.3594" id="Annotation" style="stroke: #000000; stroke-width: 1.5;" width="236" x="1231" y="261"/><ellipse cx="1315.75" cy="277" fill="#FFFFFF" rx="11" ry="11" style="stroke: #000000; stroke-width: 1.0;"/><path d="M1318.5156,272.875 Q1318.6719,272.6563 1318.8594,272.5469 Q1319.0469,272.4375 1319.2656,272.4375 Q1319.6406,272.4375 1319.875,272.6953 Q1320.1094,272.9531 1320.1094,273.5625 L1320.1094,275.0156 Q1320.1094,275.625 1319.875,275.8906 Q1319.6406,276.1563 1319.2656,276.1563 Q1318.9219,276.1563 1318.7188,275.9531 Q1318.5156,275.7656 1318.4063,275.25 Q1318.3594,274.8906 1318.1719,274.7031 Q1317.8438,274.3281 1317.2344,274.1094 Q1316.625,273.8906 1316,273.8906 Q1315.2344,273.8906 1314.6016,274.2188 Q1313.9688,274.5469 1313.4766,275.2969 Q1312.9844,276.0469 1312.9844,277.0781 L1312.9844,278.1719 Q1312.9844,279.4063 1313.875,280.2266 Q1314.7656,281.0469 1316.3594,281.0469 Q1317.2969,281.0469 1317.9531,280.7969 Q1318.3438,280.6406 1318.7656,280.2031 Q1319.0313,279.9375 1319.1797,279.8594 Q1319.3281,279.7813 1319.5313,279.7813 Q1319.8594,279.7813 1320.1172,280.0391 Q1320.375,280.2969 1320.375,280.6406 Q1320.375,280.9844 1320.0313,281.3906 Q1319.5313,281.9688 1318.7344,282.2969 Q1317.6563,282.75 1316.3594,282.75 Q1314.8438,282.75 1313.6406,282.125 Q1312.6563,281.625 1311.9688,280.5547 Q1311.2813,279.4844 1311.2813,278.2031 L1311.2813,277.0469 Q1311.2813,275.7188 1311.8984,274.5703 Q1312.5156,273.4219 1313.6094,272.8047 Q1314.7031,272.1875 1315.9375,272.1875 Q1316.6719,272.1875 1317.3203,272.3516 Q1317.9688,272.5156 1318.5156,272.875 Z "/><text fill="#000000" font-family="sans-serif" font-size="12" lengthAdjust="spacingAndGlyphs" textLength="58" x="1336.25" y="281.9102">Annotation</text><line style="stroke: #000000; stroke-width: 1.5;" x1="1232" x2="1466" y1="293" y2="293"/><text fill="#000000" font-family="sans-serif" font-size="11" lengthAdjust="spacingAndGlyphs" textLength="59" x="1237" y="308.4189">data : object</text><line style="stroke: #000000; stroke-width: 1.5;" x1="1232" x2="1466" y1="314.8359" y2="314.8359"/><text fill="#000000" font-family="sans-serif" font-size="11" lengthAdjust="spacingAndGlyphs" textLength="151" x="1237" y="330.2549">+setContents(contents : String)</text><text fill="#000000" font-family="sans-serif" font-size="11" lengthAdjust="spacingAndGlyphs" textLength="224" x="1237" y="344.0908">+setModificationDate(modificationData : String)</text><text fill="#000000" font-family="sans-serif" font-size="11" lengthAdjust="spacingAndGlyphs" textLength="125" x="1237" y="357.9268">+setFlags(flags : Number)</text><text fill="#000000" font-family="sans-serif" font-size="11" lengthAdjust="spacingAndGlyphs" textLength="164" x="1237" y="371.7627">+hasFlag(flag : Number) : Boolean</text><text fill="#000000" font-family="sans-serif" font-size="11" lengthAdjust="spacingAndGlyphs" textLength="159" x="1237" y="385.5986">+setRectangle(rectangle : Array)</text><text fill="#000000" font-family="sans-serif" font-size="11" lengthAdjust="spacingAndGlyphs" textLength="115" x="1237" y="399.4346">+setColor(color : Array)</text><text fill="#000000" font-family="sans-serif" font-size="11" lengthAdjust="spacingAndGlyphs" textLength="169" x="1237" y="413.2705">+setBorderStyle(borderStyle : Dict)</text><text fill="#000000" font-family="sans-serif" font-size="11" lengthAdjust="spacingAndGlyphs" textLength="133" x="1237" y="427.1064">+setAppearance(dict : Dict)</text><text fill="#000000" font-family="sans-serif" font-size="11" lengthAdjust="spacingAndGlyphs" textLength="9" x="1237" y="440.9424">...</text><!--class MarkupAnnotation--><rect fill="#FFFFFF" filter="url(#f1cwgu0si0ob5b)" height="61.8359" id="MarkupAnnotation" style="stroke: #000000; stroke-width: 1.5;" width="201" x="1231.5" y="508"/><ellipse cx="1278.75" cy="524" fill="#FFFFFF" rx="11" ry="11" style="stroke: #000000; stroke-width: 1.0;"/><path d="M1281.5156,519.875 Q1281.6719,519.6563 1281.8594,519.5469 Q1282.0469,519.4375 1282.2656,519.4375 Q1282.6406,519.4375 1282.875,519.6953 Q1283.1094,519.9531 1283.1094,520.5625 L1283.1094,522.0156 Q1283.1094,522.625 1282.875,522.8906 Q1282.6406,523.1563 1282.2656,523.1563 Q1281.9219,523.1563 1281.7188,522.9531 Q1281.5156,522.7656 1281.4063,522.25 Q1281.3594,521.8906 1281.1719,521.7031 Q1280.8438,521.3281 1280.2344,521.1094 Q1279.625,520.8906 1279,520.8906 Q1278.2344,520.8906 1277.6016,521.2188 Q1276.9688,521.5469 1276.4766,522.2969 Q1275.9844,523.0469 1275.9844,524.0781 L1275.9844,525.1719 Q1275.9844,526.4063 1276.875,527.2266 Q1277.7656,528.0469 1279.3594,528.0469 Q1280.2969,528.0469 1280.9531,527.7969 Q1281.3438,527.6406 1281.7656,527.2031 Q1282.0313,526.9375 1282.1797,526.8594 Q1282.3281,526.7813 1282.5313,526.7813 Q1282.8594,526.7813 1283.1172,527.0391 Q1283.375,527.2969 1283.375,527.6406 Q1283.375,527.9844 1283.0313,528.3906 Q1282.5313,528.9688 1281.7344,529.2969 Q1280.6563,529.75 1279.3594,529.75 Q1277.8438,529.75 1276.6406,529.125 Q1275.6563,528.625 1274.9688,527.5547 Q1274.2813,526.4844 1274.2813,525.2031 L1274.2813,524.0469 Q1274.2813,522.7188 1274.8984,521.5703 Q1275.5156,520.4219 1276.6094,519.8047 Q1277.7031,519.1875 1278.9375,519.1875 Q1279.6719,519.1875 1280.3203,519.3516 Q1280.9688,519.5156 1281.5156,519.875 Z "/><text fill="#000000" font-family="sans-serif" font-size="12" lengthAdjust="spacingAndGlyphs" textLength="98" x="1299.25" y="528.9102">MarkupAnnotation</text><line style="stroke: #000000; stroke-width: 1.5;" x1="1232.5" x2="1431.5" y1="540" y2="540"/><line style="stroke: #000000; stroke-width: 1.5;" x1="1232.5" x2="1431.5" y1="548" y2="548"/><text fill="#000000" font-family="sans-serif" font-size="11" lengthAdjust="spacingAndGlyphs" textLength="189" x="1237.5" y="563.4189">+setCreationDate(creationDate : String)</text><!--class AnnotationFactory--><rect fill="#FFFFFF" filter="url(#f1cwgu0si0ob5b)" height="103.3438" id="AnnotationFactory" style="stroke: #000000; stroke-width: 1.5;" width="440" x="1129" y="43"/><ellipse cx="1296.25" cy="59" fill="#FFFFFF" rx="11" ry="11" style="stroke: #000000; stroke-width: 1.0;"/><path d="M1299.0156,54.875 Q1299.1719,54.6563 1299.3594,54.5469 Q1299.5469,54.4375 1299.7656,54.4375 Q1300.1406,54.4375 1300.375,54.6953 Q1300.6094,54.9531 1300.6094,55.5625 L1300.6094,57.0156 Q1300.6094,57.625 1300.375,57.8906 Q1300.1406,58.1563 1299.7656,58.1563 Q1299.4219,58.1563 1299.2188,57.9531 Q1299.0156,57.7656 1298.9063,57.25 Q1298.8594,56.8906 1298.6719,56.7031 Q1298.3438,56.3281 1297.7344,56.1094 Q1297.125,55.8906 1296.5,55.8906 Q1295.7344,55.8906 1295.1016,56.2188 Q1294.4688,56.5469 1293.9766,57.2969 Q1293.4844,58.0469 1293.4844,59.0781 L1293.4844,60.1719 Q1293.4844,61.4063 1294.375,62.2266 Q1295.2656,63.0469 1296.8594,63.0469 Q1297.7969,63.0469 1298.4531,62.7969 Q1298.8438,62.6406 1299.2656,62.2031 Q1299.5313,61.9375 1299.6797,61.8594 Q1299.8281,61.7813 1300.0313,61.7813 Q1300.3594,61.7813 1300.6172,62.0391 Q1300.875,62.2969 1300.875,62.6406 Q1300.875,62.9844 1300.5313,63.3906 Q1300.0313,63.9688 1299.2344,64.2969 Q1298.1563,64.75 1296.8594,64.75 Q1295.3438,64.75 1294.1406,64.125 Q1293.1563,63.625 1292.4688,62.5547 Q1291.7813,61.4844 1291.7813,60.2031 L1291.7813,59.0469 Q1291.7813,57.7188 1292.3984,56.5703 Q1293.0156,55.4219 1294.1094,54.8047 Q1295.2031,54.1875 1296.4375,54.1875 Q1297.1719,54.1875 1297.8203,54.3516 Q1298.4688,54.5156 1299.0156,54.875 Z "/><text fill="#000000" font-family="sans-serif" font-size="12" lengthAdjust="spacingAndGlyphs" textLength="97" x="1316.75" y="63.9102">AnnotationFactory</text><line style="stroke: #000000; stroke-width: 1.5;" x1="1130" x2="1568" y1="75" y2="75"/><line style="stroke: #000000; stroke-width: 1.5;" x1="1130" x2="1568" y1="83" y2="83"/><text fill="#000000" font-family="sans-serif" font-size="11" lengthAdjust="spacingAndGlyphs" text-decoration="underline" textLength="422" x="1135" y="98.4189">create(xref : XRef, ref : object, pdfManager : PDFManager, idFactory : Object) : Promise</text><text fill="#000000" font-family="sans-serif" font-size="11" lengthAdjust="spacingAndGlyphs" text-decoration="underline" textLength="428" x="1135" y="112.2549">_create(xref : XRef, ref : object, pdfManager : PDFManager, idFactory : Object) : Promise</text><text fill="#000000" font-family="sans-serif" font-size="11" lengthAdjust="spacingAndGlyphs" textLength="221" x="1135" y="126.0908">getQuadPoints(dict : Dict, rect : Array) : Array</text><text fill="#000000" font-family="sans-serif" font-size="11" lengthAdjust="spacingAndGlyphs" textLength="324" x="1135" y="139.9268">getTransformMatrix(rect : Array, bbox : Dict, matrix : Array) : Array</text><!--class AnnotationBorderStyle--><rect fill="#FFFFFF" filter="url(#f1cwgu0si0ob5b)" height="172.5234" id="AnnotationBorderStyle" style="stroke: #000000; stroke-width: 1.5;" width="231" x="1604.5" y="8"/><ellipse cx="1655.25" cy="24" fill="#FFFFFF" rx="11" ry="11" style="stroke: #000000; stroke-width: 1.0;"/><path d="M1658.0156,19.875 Q1658.1719,19.6563 1658.3594,19.5469 Q1658.5469,19.4375 1658.7656,19.4375 Q1659.1406,19.4375 1659.375,19.6953 Q1659.6094,19.9531 1659.6094,20.5625 L1659.6094,22.0156 Q1659.6094,22.625 1659.375,22.8906 Q1659.1406,23.1563 1658.7656,23.1563 Q1658.4219,23.1563 1658.2188,22.9531 Q1658.0156,22.7656 1657.9063,22.25 Q1657.8594,21.8906 1657.6719,21.7031 Q1657.3438,21.3281 1656.7344,21.1094 Q1656.125,20.8906 1655.5,20.8906 Q1654.7344,20.8906 1654.1016,21.2188 Q1653.4688,21.5469 1652.9766,22.2969 Q1652.4844,23.0469 1652.4844,24.0781 L1652.4844,25.1719 Q1652.4844,26.4063 1653.375,27.2266 Q1654.2656,28.0469 1655.8594,28.0469 Q1656.7969,28.0469 1657.4531,27.7969 Q1657.8438,27.6406 1658.2656,27.2031 Q1658.5313,26.9375 1658.6797,26.8594 Q1658.8281,26.7813 1659.0313,26.7813 Q1659.3594,26.7813 1659.6172,27.0391 Q1659.875,27.2969 1659.875,27.6406 Q1659.875,27.9844 1659.5313,28.3906 Q1659.0313,28.9688 1658.2344,29.2969 Q1657.1563,29.75 1655.8594,29.75 Q1654.3438,29.75 1653.1406,29.125 Q1652.1563,28.625 1651.4688,27.5547 Q1650.7813,26.4844 1650.7813,25.2031 L1650.7813,24.0469 Q1650.7813,22.7188 1651.3984,21.5703 Q1652.0156,20.4219 1653.1094,19.8047 Q1654.2031,19.1875 1655.4375,19.1875 Q1656.1719,19.1875 1656.8203,19.3516 Q1657.4688,19.5156 1658.0156,19.875 Z "/><text fill="#000000" font-family="sans-serif" font-size="12" lengthAdjust="spacingAndGlyphs" textLength="121" x="1675.75" y="28.9102">AnnotationBorderStyle</text><line style="stroke: #000000; stroke-width: 1.5;" x1="1605.5" x2="1834.5" y1="40" y2="40"/><text fill="#000000" font-family="sans-serif" font-size="11" lengthAdjust="spacingAndGlyphs" textLength="73" x="1610.5" y="55.4189">width : Number</text><text fill="#000000" font-family="sans-serif" font-size="11" lengthAdjust="spacingAndGlyphs" textLength="60" x="1610.5" y="69.2549">style : String</text><text fill="#000000" font-family="sans-serif" font-size="11" lengthAdjust="spacingAndGlyphs" textLength="89" x="1610.5" y="83.0908">dashArray : Array</text><text fill="#000000" font-family="sans-serif" font-size="11" lengthAdjust="spacingAndGlyphs" textLength="159" x="1610.5" y="96.9268">horizontalCornerRadius : Number</text><text fill="#000000" font-family="sans-serif" font-size="11" lengthAdjust="spacingAndGlyphs" textLength="147" x="1610.5" y="110.7627">verticalCornerRadius : Number</text><line style="stroke: #000000; stroke-width: 1.5;" x1="1605.5" x2="1834.5" y1="117.1797" y2="117.1797"/><text fill="#000000" font-family="sans-serif" font-size="11" lengthAdjust="spacingAndGlyphs" textLength="191" x="1610.5" y="132.5986">+setWidth(width : Number, rect : Array)</text><text fill="#000000" font-family="sans-serif" font-size="11" lengthAdjust="spacingAndGlyphs" textLength="171" x="1610.5" y="146.4346">+setDashArray(dashArray : Array)</text><text fill="#000000" font-family="sans-serif" font-size="11" lengthAdjust="spacingAndGlyphs" textLength="219" x="1610.5" y="160.2705">+setHorizontalCornerRadius(radius : Number)</text><text fill="#000000" font-family="sans-serif" font-size="11" lengthAdjust="spacingAndGlyphs" textLength="208" x="1610.5" y="174.1064">+setVerticalCornerRadius(radius : Number)</text><!--class WidgetAnnotation--><rect fill="#FFFFFF" filter="url(#f1cwgu0si0ob5b)" height="61.8359" id="WidgetAnnotation" style="stroke: #000000; stroke-width: 1.5;" width="198" x="1903" y="508"/><ellipse cx="1949.75" cy="524" fill="#FFFFFF" rx="11" ry="11" style="stroke: #000000; stroke-width: 1.0;"/><path d="M1952.5156,519.875 Q1952.6719,519.6563 1952.8594,519.5469 Q1953.0469,519.4375 1953.2656,519.4375 Q1953.6406,519.4375 1953.875,519.6953 Q1954.1094,519.9531 1954.1094,520.5625 L1954.1094,522.0156 Q1954.1094,522.625 1953.875,522.8906 Q1953.6406,523.1563 1953.2656,523.1563 Q1952.9219,523.1563 1952.7188,522.9531 Q1952.5156,522.7656 1952.4063,522.25 Q1952.3594,521.8906 1952.1719,521.7031 Q1951.8438,521.3281 1951.2344,521.1094 Q1950.625,520.8906 1950,520.8906 Q1949.2344,520.8906 1948.6016,521.2188 Q1947.9688,521.5469 1947.4766,522.2969 Q1946.9844,523.0469 1946.9844,524.0781 L1946.9844,525.1719 Q1946.9844,526.4063 1947.875,527.2266 Q1948.7656,528.0469 1950.3594,528.0469 Q1951.2969,528.0469 1951.9531,527.7969 Q1952.3438,527.6406 1952.7656,527.2031 Q1953.0313,526.9375 1953.1797,526.8594 Q1953.3281,526.7813 1953.5313,526.7813 Q1953.8594,526.7813 1954.1172,527.0391 Q1954.375,527.2969 1954.375,527.6406 Q1954.375,527.9844 1954.0313,528.3906 Q1953.5313,528.9688 1952.7344,529.2969 Q1951.6563,529.75 1950.3594,529.75 Q1948.8438,529.75 1947.6406,529.125 Q1946.6563,528.625 1945.9688,527.5547 Q1945.2813,526.4844 1945.2813,525.2031 L1945.2813,524.0469 Q1945.2813,522.7188 1945.8984,521.5703 Q1946.5156,520.4219 1947.6094,519.8047 Q1948.7031,519.1875 1949.9375,519.1875 Q1950.6719,519.1875 1951.3203,519.3516 Q1951.9688,519.5156 1952.5156,519.875 Z "/><text fill="#000000" font-family="sans-serif" font-size="12" lengthAdjust="spacingAndGlyphs" textLength="96" x="1970.25" y="528.9102">WidgetAnnotation</text><line style="stroke: #000000; stroke-width: 1.5;" x1="1904" x2="2100" y1="540" y2="540"/><line style="stroke: #000000; stroke-width: 1.5;" x1="1904" x2="2100" y1="548" y2="548"/><text fill="#000000" font-family="sans-serif" font-size="11" lengthAdjust="spacingAndGlyphs" textLength="186" x="1909" y="563.4189">+hasFieldFlag(flag : Number) : Boolean</text><!--class TextWidgetAnnotation--><rect fill="#FFFFFF" filter="url(#f1cwgu0si0ob5b)" height="48" id="TextWidgetAnnotation" style="stroke: #000000; stroke-width: 1.5;" width="150" x="2332" y="633"/><ellipse cx="2347" cy="649" fill="#FFFFFF" rx="11" ry="11" style="stroke: #000000; stroke-width: 1.0;"/><path d="M2349.7656,644.875 Q2349.9219,644.6563 2350.1094,644.5469 Q2350.2969,644.4375 2350.5156,644.4375 Q2350.8906,644.4375 2351.125,644.6953 Q2351.3594,644.9531 2351.3594,645.5625 L2351.3594,647.0156 Q2351.3594,647.625 2351.125,647.8906 Q2350.8906,648.1563 2350.5156,648.1563 Q2350.1719,648.1563 2349.9688,647.9531 Q2349.7656,647.7656 2349.6563,647.25 Q2349.6094,646.8906 2349.4219,646.7031 Q2349.0938,646.3281 2348.4844,646.1094 Q2347.875,645.8906 2347.25,645.8906 Q2346.4844,645.8906 2345.8516,646.2188 Q2345.2188,646.5469 2344.7266,647.2969 Q2344.2344,648.0469 2344.2344,649.0781 L2344.2344,650.1719 Q2344.2344,651.4063 2345.125,652.2266 Q2346.0156,653.0469 2347.6094,653.0469 Q2348.5469,653.0469 2349.2031,652.7969 Q2349.5938,652.6406 2350.0156,652.2031 Q2350.2813,651.9375 2350.4297,651.8594 Q2350.5781,651.7813 2350.7813,651.7813 Q2351.1094,651.7813 2351.3672,652.0391 Q2351.625,652.2969 2351.625,652.6406 Q2351.625,652.9844 2351.2813,653.3906 Q2350.7813,653.9688 2349.9844,654.2969 Q2348.9063,654.75 2347.6094,654.75 Q2346.0938,654.75 2344.8906,654.125 Q2343.9063,653.625 2343.2188,652.5547 Q2342.5313,651.4844 2342.5313,650.2031 L2342.5313,649.0469 Q2342.5313,647.7188 2343.1484,646.5703 Q2343.7656,645.4219 2344.8594,644.8047 Q2345.9531,644.1875 2347.1875,644.1875 Q2347.9219,644.1875 2348.5703,644.3516 Q2349.2188,644.5156 2349.7656,644.875 Z "/><text fill="#000000" font-family="sans-serif" font-size="12" lengthAdjust="spacingAndGlyphs" textLength="118" x="2361" y="653.9102">TextWidgetAnnotation</text><line style="stroke: #000000; stroke-width: 1.5;" x1="2333" x2="2481" y1="665" y2="665"/><line style="stroke: #000000; stroke-width: 1.5;" x1="2333" x2="2481" y1="673" y2="673"/><!--class ButtonWidgetAnnotation--><rect fill="#FFFFFF" filter="url(#f1cwgu0si0ob5b)" height="48" id="ButtonWidgetAnnotation" style="stroke: #000000; stroke-width: 1.5;" width="163" x="2517.5" y="633"/><ellipse cx="2532.5" cy="649" fill="#FFFFFF" rx="11" ry="11" style="stroke: #000000; stroke-width: 1.0;"/><path d="M2535.2656,644.875 Q2535.4219,644.6563 2535.6094,644.5469 Q2535.7969,644.4375 2536.0156,644.4375 Q2536.3906,644.4375 2536.625,644.6953 Q2536.8594,644.9531 2536.8594,645.5625 L2536.8594,647.0156 Q2536.8594,647.625 2536.625,647.8906 Q2536.3906,648.1563 2536.0156,648.1563 Q2535.6719,648.1563 2535.4688,647.9531 Q2535.2656,647.7656 2535.1563,647.25 Q2535.1094,646.8906 2534.9219,646.7031 Q2534.5938,646.3281 2533.9844,646.1094 Q2533.375,645.8906 2532.75,645.8906 Q2531.9844,645.8906 2531.3516,646.2188 Q2530.7188,646.5469 2530.2266,647.2969 Q2529.7344,648.0469 2529.7344,649.0781 L2529.7344,650.1719 Q2529.7344,651.4063 2530.625,652.2266 Q2531.5156,653.0469 2533.1094,653.0469 Q2534.0469,653.0469 2534.7031,652.7969 Q2535.0938,652.6406 2535.5156,652.2031 Q2535.7813,651.9375 2535.9297,651.8594 Q2536.0781,651.7813 2536.2813,651.7813 Q2536.6094,651.7813 2536.8672,652.0391 Q2537.125,652.2969 2537.125,652.6406 Q2537.125,652.9844 2536.7813,653.3906 Q2536.2813,653.9688 2535.4844,654.2969 Q2534.4063,654.75 2533.1094,654.75 Q2531.5938,654.75 2530.3906,654.125 Q2529.4063,653.625 2528.7188,652.5547 Q2528.0313,651.4844 2528.0313,650.2031 L2528.0313,649.0469 Q2528.0313,647.7188 2528.6484,646.5703 Q2529.2656,645.4219 2530.3594,644.8047 Q2531.4531,644.1875 2532.6875,644.1875 Q2533.4219,644.1875 2534.0703,644.3516 Q2534.7188,644.5156 2535.2656,644.875 Z "/><text fill="#000000" font-family="sans-serif" font-size="12" lengthAdjust="spacingAndGlyphs" textLength="131" x="2546.5" y="653.9102">ButtonWidgetAnnotation</text><line style="stroke: #000000; stroke-width: 1.5;" x1="2518.5" x2="2679.5" y1="665" y2="665"/><line style="stroke: #000000; stroke-width: 1.5;" x1="2518.5" x2="2679.5" y1="673" y2="673"/><!--class ChoiceWidgetAnnotation--><rect fill="#FFFFFF" filter="url(#f1cwgu0si0ob5b)" height="48" id="ChoiceWidgetAnnotation" style="stroke: #000000; stroke-width: 1.5;" width="167" x="2715.5" y="633"/><ellipse cx="2730.5" cy="649" fill="#FFFFFF" rx="11" ry="11" style="stroke: #000000; stroke-width: 1.0;"/><path d="M2733.2656,644.875 Q2733.4219,644.6563 2733.6094,644.5469 Q2733.7969,644.4375 2734.0156,644.4375 Q2734.3906,644.4375 2734.625,644.6953 Q2734.8594,644.9531 2734.8594,645.5625 L2734.8594,647.0156 Q2734.8594,647.625 2734.625,647.8906 Q2734.3906,648.1563 2734.0156,648.1563 Q2733.6719,648.1563 2733.4688,647.9531 Q2733.2656,647.7656 2733.1563,647.25 Q2733.1094,646.8906 2732.9219,646.7031 Q2732.5938,646.3281 2731.9844,646.1094 Q2731.375,645.8906 2730.75,645.8906 Q2729.9844,645.8906 2729.3516,646.2188 Q2728.7188,646.5469 2728.2266,647.2969 Q2727.7344,648.0469 2727.7344,649.0781 L2727.7344,650.1719 Q2727.7344,651.4063 2728.625,652.2266 Q2729.5156,653.0469 2731.1094,653.0469 Q2732.0469,653.0469 2732.7031,652.7969 Q2733.0938,652.6406 2733.5156,652.2031 Q2733.7813,651.9375 2733.9297,651.8594 Q2734.0781,651.7813 2734.2813,651.7813 Q2734.6094,651.7813 2734.8672,652.0391 Q2735.125,652.2969 2735.125,652.6406 Q2735.125,652.9844 2734.7813,653.3906 Q2734.2813,653.9688 2733.4844,654.2969 Q2732.4063,654.75 2731.1094,654.75 Q2729.5938,654.75 2728.3906,654.125 Q2727.4063,653.625 2726.7188,652.5547 Q2726.0313,651.4844 2726.0313,650.2031 L2726.0313,649.0469 Q2726.0313,647.7188 2726.6484,646.5703 Q2727.2656,645.4219 2728.3594,644.8047 Q2729.4531,644.1875 2730.6875,644.1875 Q2731.4219,644.1875 2732.0703,644.3516 Q2732.7188,644.5156 2733.2656,644.875 Z "/><text fill="#000000" font-family="sans-serif" font-size="12" lengthAdjust="spacingAndGlyphs" textLength="135" x="2744.5" y="653.9102">ChoiceWidgetAnnotation</text><line style="stroke: #000000; stroke-width: 1.5;" x1="2716.5" x2="2881.5" y1="665" y2="665"/><line style="stroke: #000000; stroke-width: 1.5;" x1="2716.5" x2="2881.5" y1="673" y2="673"/><!--class TextAnnotation--><rect fill="#FFFFFF" filter="url(#f1cwgu0si0ob5b)" height="48" id="TextAnnotation" style="stroke: #000000; stroke-width: 1.5;" width="112" x="6" y="633"/><ellipse cx="21" cy="649" fill="#FFFFFF" rx="11" ry="11" style="stroke: #000000; stroke-width: 1.0;"/><path d="M23.7656,644.875 Q23.9219,644.6563 24.1094,644.5469 Q24.2969,644.4375 24.5156,644.4375 Q24.8906,644.4375 25.125,644.6953 Q25.3594,644.9531 25.3594,645.5625 L25.3594,647.0156 Q25.3594,647.625 25.125,647.8906 Q24.8906,648.1563 24.5156,648.1563 Q24.1719,648.1563 23.9688,647.9531 Q23.7656,647.7656 23.6563,647.25 Q23.6094,646.8906 23.4219,646.7031 Q23.0938,646.3281 22.4844,646.1094 Q21.875,645.8906 21.25,645.8906 Q20.4844,645.8906 19.8516,646.2188 Q19.2188,646.5469 18.7266,647.2969 Q18.2344,648.0469 18.2344,649.0781 L18.2344,650.1719 Q18.2344,651.4063 19.125,652.2266 Q20.0156,653.0469 21.6094,653.0469 Q22.5469,653.0469 23.2031,652.7969 Q23.5938,652.6406 24.0156,652.2031 Q24.2813,651.9375 24.4297,651.8594 Q24.5781,651.7813 24.7813,651.7813 Q25.1094,651.7813 25.3672,652.0391 Q25.625,652.2969 25.625,652.6406 Q25.625,652.9844 25.2813,653.3906 Q24.7813,653.9688 23.9844,654.2969 Q22.9063,654.75 21.6094,654.75 Q20.0938,654.75 18.8906,654.125 Q17.9063,653.625 17.2188,652.5547 Q16.5313,651.4844 16.5313,650.2031 L16.5313,649.0469 Q16.5313,647.7188 17.1484,646.5703 Q17.7656,645.4219 18.8594,644.8047 Q19.9531,644.1875 21.1875,644.1875 Q21.9219,644.1875 22.5703,644.3516 Q23.2188,644.5156 23.7656,644.875 Z "/><text fill="#000000" font-family="sans-serif" font-size="12" lengthAdjust="spacingAndGlyphs" textLength="80" x="35" y="653.9102">TextAnnotation</text><line style="stroke: #000000; stroke-width: 1.5;" x1="7" x2="117" y1="665" y2="665"/><line style="stroke: #000000; stroke-width: 1.5;" x1="7" x2="117" y1="673" y2="673"/><!--class LinkAnnotation--><rect fill="#FFFFFF" filter="url(#f1cwgu0si0ob5b)" height="48" id="LinkAnnotation" style="stroke: #000000; stroke-width: 1.5;" width="113" x="2136.5" y="515"/><ellipse cx="2151.5" cy="531" fill="#FFFFFF" rx="11" ry="11" style="stroke: #000000; stroke-width: 1.0;"/><path d="M2154.2656,526.875 Q2154.4219,526.6563 2154.6094,526.5469 Q2154.7969,526.4375 2155.0156,526.4375 Q2155.3906,526.4375 2155.625,526.6953 Q2155.8594,526.9531 2155.8594,527.5625 L2155.8594,529.0156 Q2155.8594,529.625 2155.625,529.8906 Q2155.3906,530.1563 2155.0156,530.1563 Q2154.6719,530.1563 2154.4688,529.9531 Q2154.2656,529.7656 2154.1563,529.25 Q2154.1094,528.8906 2153.9219,528.7031 Q2153.5938,528.3281 2152.9844,528.1094 Q2152.375,527.8906 2151.75,527.8906 Q2150.9844,527.8906 2150.3516,528.2188 Q2149.7188,528.5469 2149.2266,529.2969 Q2148.7344,530.0469 2148.7344,531.0781 L2148.7344,532.1719 Q2148.7344,533.4063 2149.625,534.2266 Q2150.5156,535.0469 2152.1094,535.0469 Q2153.0469,535.0469 2153.7031,534.7969 Q2154.0938,534.6406 2154.5156,534.2031 Q2154.7813,533.9375 2154.9297,533.8594 Q2155.0781,533.7813 2155.2813,533.7813 Q2155.6094,533.7813 2155.8672,534.0391 Q2156.125,534.2969 2156.125,534.6406 Q2156.125,534.9844 2155.7813,535.3906 Q2155.2813,535.9688 2154.4844,536.2969 Q2153.4063,536.75 2152.1094,536.75 Q2150.5938,536.75 2149.3906,536.125 Q2148.4063,535.625 2147.7188,534.5547 Q2147.0313,533.4844 2147.0313,532.2031 L2147.0313,531.0469 Q2147.0313,529.7188 2147.6484,528.5703 Q2148.2656,527.4219 2149.3594,526.8047 Q2150.4531,526.1875 2151.6875,526.1875 Q2152.4219,526.1875 2153.0703,526.3516 Q2153.7188,526.5156 2154.2656,526.875 Z "/><text fill="#000000" font-family="sans-serif" font-size="12" lengthAdjust="spacingAndGlyphs" textLength="81" x="2165.5" y="535.9102">LinkAnnotation</text><line style="stroke: #000000; stroke-width: 1.5;" x1="2137.5" x2="2248.5" y1="547" y2="547"/><line style="stroke: #000000; stroke-width: 1.5;" x1="2137.5" x2="2248.5" y1="555" y2="555"/><!--class PopupAnnotation--><rect fill="#FFFFFF" filter="url(#f1cwgu0si0ob5b)" height="48" id="PopupAnnotation" style="stroke: #000000; stroke-width: 1.5;" width="126" x="2285" y="515"/><ellipse cx="2300" cy="531" fill="#FFFFFF" rx="11" ry="11" style="stroke: #000000; stroke-width: 1.0;"/><path d="M2302.7656,526.875 Q2302.9219,526.6563 2303.1094,526.5469 Q2303.2969,526.4375 2303.5156,526.4375 Q2303.8906,526.4375 2304.125,526.6953 Q2304.3594,526.9531 2304.3594,527.5625 L2304.3594,529.0156 Q2304.3594,529.625 2304.125,529.8906 Q2303.8906,530.1563 2303.5156,530.1563 Q2303.1719,530.1563 2302.9688,529.9531 Q2302.7656,529.7656 2302.6563,529.25 Q2302.6094,528.8906 2302.4219,528.7031 Q2302.0938,528.3281 2301.4844,528.1094 Q2300.875,527.8906 2300.25,527.8906 Q2299.4844,527.8906 2298.8516,528.2188 Q2298.2188,528.5469 2297.7266,529.2969 Q2297.2344,530.0469 2297.2344,531.0781 L2297.2344,532.1719 Q2297.2344,533.4063 2298.125,534.2266 Q2299.0156,535.0469 2300.6094,535.0469 Q2301.5469,535.0469 2302.2031,534.7969 Q2302.5938,534.6406 2303.0156,534.2031 Q2303.2813,533.9375 2303.4297,533.8594 Q2303.5781,533.7813 2303.7813,533.7813 Q2304.1094,533.7813 2304.3672,534.0391 Q2304.625,534.2969 2304.625,534.6406 Q2304.625,534.9844 2304.2813,535.3906 Q2303.7813,535.9688 2302.9844,536.2969 Q2301.9063,536.75 2300.6094,536.75 Q2299.0938,536.75 2297.8906,536.125 Q2296.9063,535.625 2296.2188,534.5547 Q2295.5313,533.4844 2295.5313,532.2031 L2295.5313,531.0469 Q2295.5313,529.7188 2296.1484,528.5703 Q2296.7656,527.4219 2297.8594,526.8047 Q2298.9531,526.1875 2300.1875,526.1875 Q2300.9219,526.1875 2301.5703,526.3516 Q2302.2188,526.5156 2302.7656,526.875 Z "/><text fill="#000000" font-family="sans-serif" font-size="12" lengthAdjust="spacingAndGlyphs" textLength="94" x="2314" y="535.9102">PopupAnnotation</text><line style="stroke: #000000; stroke-width: 1.5;" x1="2286" x2="2410" y1="547" y2="547"/><line style="stroke: #000000; stroke-width: 1.5;" x1="2286" x2="2410" y1="555" y2="555"/><!--class FreeTextAnnotation--><rect fill="#FFFFFF" filter="url(#f1cwgu0si0ob5b)" height="48" id="FreeTextAnnotation" style="stroke: #000000; stroke-width: 1.5;" width="137" x="153.5" y="633"/><ellipse cx="168.5" cy="649" fill="#FFFFFF" rx="11" ry="11" style="stroke: #000000; stroke-width: 1.0;"/><path d="M171.2656,644.875 Q171.4219,644.6563 171.6094,644.5469 Q171.7969,644.4375 172.0156,644.4375 Q172.3906,644.4375 172.625,644.6953 Q172.8594,644.9531 172.8594,645.5625 L172.8594,647.0156 Q172.8594,647.625 172.625,647.8906 Q172.3906,648.1563 172.0156,648.1563 Q171.6719,648.1563 171.4688,647.9531 Q171.2656,647.7656 171.1563,647.25 Q171.1094,646.8906 170.9219,646.7031 Q170.5938,646.3281 169.9844,646.1094 Q169.375,645.8906 168.75,645.8906 Q167.9844,645.8906 167.3516,646.2188 Q166.7188,646.5469 166.2266,647.2969 Q165.7344,648.0469 165.7344,649.0781 L165.7344,650.1719 Q165.7344,651.4063 166.625,652.2266 Q167.5156,653.0469 169.1094,653.0469 Q170.0469,653.0469 170.7031,652.7969 Q171.0938,652.6406 171.5156,652.2031 Q171.7813,651.9375 171.9297,651.8594 Q172.0781,651.7813 172.2813,651.7813 Q172.6094,651.7813 172.8672,652.0391 Q173.125,652.2969 173.125,652.6406 Q173.125,652.9844 172.7813,653.3906 Q172.2813,653.9688 171.4844,654.2969 Q170.4063,654.75 169.1094,654.75 Q167.5938,654.75 166.3906,654.125 Q165.4063,653.625 164.7188,652.5547 Q164.0313,651.4844 164.0313,650.2031 L164.0313,649.0469 Q164.0313,647.7188 164.6484,646.5703 Q165.2656,645.4219 166.3594,644.8047 Q167.4531,644.1875 168.6875,644.1875 Q169.4219,644.1875 170.0703,644.3516 Q170.7188,644.5156 171.2656,644.875 Z "/><text fill="#000000" font-family="sans-serif" font-size="12" lengthAdjust="spacingAndGlyphs" textLength="105" x="182.5" y="653.9102">FreeTextAnnotation</text><line style="stroke: #000000; stroke-width: 1.5;" x1="154.5" x2="289.5" y1="665" y2="665"/><line style="stroke: #000000; stroke-width: 1.5;" x1="154.5" x2="289.5" y1="673" y2="673"/><!--class LineAnnotation--><rect fill="#FFFFFF" filter="url(#f1cwgu0si0ob5b)" height="48" id="LineAnnotation" style="stroke: #000000; stroke-width: 1.5;" width="114" x="326" y="633"/><ellipse cx="341" cy="649" fill="#FFFFFF" rx="11" ry="11" style="stroke: #000000; stroke-width: 1.0;"/><path d="M343.7656,644.875 Q343.9219,644.6563 344.1094,644.5469 Q344.2969,644.4375 344.5156,644.4375 Q344.8906,644.4375 345.125,644.6953 Q345.3594,644.9531 345.3594,645.5625 L345.3594,647.0156 Q345.3594,647.625 345.125,647.8906 Q344.8906,648.1563 344.5156,648.1563 Q344.1719,648.1563 343.9688,647.9531 Q343.7656,647.7656 343.6563,647.25 Q343.6094,646.8906 343.4219,646.7031 Q343.0938,646.3281 342.4844,646.1094 Q341.875,645.8906 341.25,645.8906 Q340.4844,645.8906 339.8516,646.2188 Q339.2188,646.5469 338.7266,647.2969 Q338.2344,648.0469 338.2344,649.0781 L338.2344,650.1719 Q338.2344,651.4063 339.125,652.2266 Q340.0156,653.0469 341.6094,653.0469 Q342.5469,653.0469 343.2031,652.7969 Q343.5938,652.6406 344.0156,652.2031 Q344.2813,651.9375 344.4297,651.8594 Q344.5781,651.7813 344.7813,651.7813 Q345.1094,651.7813 345.3672,652.0391 Q345.625,652.2969 345.625,652.6406 Q345.625,652.9844 345.2813,653.3906 Q344.7813,653.9688 343.9844,654.2969 Q342.9063,654.75 341.6094,654.75 Q340.0938,654.75 338.8906,654.125 Q337.9063,653.625 337.2188,652.5547 Q336.5313,651.4844 336.5313,650.2031 L336.5313,649.0469 Q336.5313,647.7188 337.1484,646.5703 Q337.7656,645.4219 338.8594,644.8047 Q339.9531,644.1875 341.1875,644.1875 Q341.9219,644.1875 342.5703,644.3516 Q343.2188,644.5156 343.7656,644.875 Z "/><text fill="#000000" font-family="sans-serif" font-size="12" lengthAdjust="spacingAndGlyphs" textLength="82" x="355" y="653.9102">LineAnnotation</text><line style="stroke: #000000; stroke-width: 1.5;" x1="327" x2="439" y1="665" y2="665"/><line style="stroke: #000000; stroke-width: 1.5;" x1="327" x2="439" y1="673" y2="673"/><!--class SquareAnnotation--><rect fill="#FFFFFF" filter="url(#f1cwgu0si0ob5b)" height="48" id="SquareAnnotation" style="stroke: #000000; stroke-width: 1.5;" width="130" x="475" y="633"/><ellipse cx="490" cy="649" fill="#FFFFFF" rx="11" ry="11" style="stroke: #000000; stroke-width: 1.0;"/><path d="M492.7656,644.875 Q492.9219,644.6563 493.1094,644.5469 Q493.2969,644.4375 493.5156,644.4375 Q493.8906,644.4375 494.125,644.6953 Q494.3594,644.9531 494.3594,645.5625 L494.3594,647.0156 Q494.3594,647.625 494.125,647.8906 Q493.8906,648.1563 493.5156,648.1563 Q493.1719,648.1563 492.9688,647.9531 Q492.7656,647.7656 492.6563,647.25 Q492.6094,646.8906 492.4219,646.7031 Q492.0938,646.3281 491.4844,646.1094 Q490.875,645.8906 490.25,645.8906 Q489.4844,645.8906 488.8516,646.2188 Q488.2188,646.5469 487.7266,647.2969 Q487.2344,648.0469 487.2344,649.0781 L487.2344,650.1719 Q487.2344,651.4063 488.125,652.2266 Q489.0156,653.0469 490.6094,653.0469 Q491.5469,653.0469 492.2031,652.7969 Q492.5938,652.6406 493.0156,652.2031 Q493.2813,651.9375 493.4297,651.8594 Q493.5781,651.7813 493.7813,651.7813 Q494.1094,651.7813 494.3672,652.0391 Q494.625,652.2969 494.625,652.6406 Q494.625,652.9844 494.2813,653.3906 Q493.7813,653.9688 492.9844,654.2969 Q491.9063,654.75 490.6094,654.75 Q489.0938,654.75 487.8906,654.125 Q486.9063,653.625 486.2188,652.5547 Q485.5313,651.4844 485.5313,650.2031 L485.5313,649.0469 Q485.5313,647.7188 486.1484,646.5703 Q486.7656,645.4219 487.8594,644.8047 Q488.9531,644.1875 490.1875,644.1875 Q490.9219,644.1875 491.5703,644.3516 Q492.2188,644.5156 492.7656,644.875 Z "/><text fill="#000000" font-family="sans-serif" font-size="12" lengthAdjust="spacingAndGlyphs" textLength="98" x="504" y="653.9102">SquareAnnotation</text><line style="stroke: #000000; stroke-width: 1.5;" x1="476" x2="604" y1="665" y2="665"/><line style="stroke: #000000; stroke-width: 1.5;" x1="476" x2="604" y1="673" y2="673"/><!--class CircleAnnotation--><rect fill="#FFFFFF" filter="url(#f1cwgu0si0ob5b)" height="48" id="CircleAnnotation" style="stroke: #000000; stroke-width: 1.5;" width="122" x="640" y="633"/><ellipse cx="655" cy="649" fill="#FFFFFF" rx="11" ry="11" style="stroke: #000000; stroke-width: 1.0;"/><path d="M657.7656,644.875 Q657.9219,644.6563 658.1094,644.5469 Q658.2969,644.4375 658.5156,644.4375 Q658.8906,644.4375 659.125,644.6953 Q659.3594,644.9531 659.3594,645.5625 L659.3594,647.0156 Q659.3594,647.625 659.125,647.8906 Q658.8906,648.1563 658.5156,648.1563 Q658.1719,648.1563 657.9688,647.9531 Q657.7656,647.7656 657.6563,647.25 Q657.6094,646.8906 657.4219,646.7031 Q657.0938,646.3281 656.4844,646.1094 Q655.875,645.8906 655.25,645.8906 Q654.4844,645.8906 653.8516,646.2188 Q653.2188,646.5469 652.7266,647.2969 Q652.2344,648.0469 652.2344,649.0781 L652.2344,650.1719 Q652.2344,651.4063 653.125,652.2266 Q654.0156,653.0469 655.6094,653.0469 Q656.5469,653.0469 657.2031,652.7969 Q657.5938,652.6406 658.0156,652.2031 Q658.2813,651.9375 658.4297,651.8594 Q658.5781,651.7813 658.7813,651.7813 Q659.1094,651.7813 659.3672,652.0391 Q659.625,652.2969 659.625,652.6406 Q659.625,652.9844 659.2813,653.3906 Q658.7813,653.9688 657.9844,654.2969 Q656.9063,654.75 655.6094,654.75 Q654.0938,654.75 652.8906,654.125 Q651.9063,653.625 651.2188,652.5547 Q650.5313,651.4844 650.5313,650.2031 L650.5313,649.0469 Q650.5313,647.7188 651.1484,646.5703 Q651.7656,645.4219 652.8594,644.8047 Q653.9531,644.1875 655.1875,644.1875 Q655.9219,644.1875 656.5703,644.3516 Q657.2188,644.5156 657.7656,644.875 Z "/><text fill="#000000" font-family="sans-serif" font-size="12" lengthAdjust="spacingAndGlyphs" textLength="90" x="669" y="653.9102">CircleAnnotation</text><line style="stroke: #000000; stroke-width: 1.5;" x1="641" x2="761" y1="665" y2="665"/><line style="stroke: #000000; stroke-width: 1.5;" x1="641" x2="761" y1="673" y2="673"/><!--class PolylineAnnotation--><rect fill="#FFFFFF" filter="url(#f1cwgu0si0ob5b)" height="48" id="PolylineAnnotation" style="stroke: #000000; stroke-width: 1.5;" width="133" x="797.5" y="633"/><ellipse cx="812.5" cy="649" fill="#FFFFFF" rx="11" ry="11" style="stroke: #000000; stroke-width: 1.0;"/><path d="M815.2656,644.875 Q815.4219,644.6563 815.6094,644.5469 Q815.7969,644.4375 816.0156,644.4375 Q816.3906,644.4375 816.625,644.6953 Q816.8594,644.9531 816.8594,645.5625 L816.8594,647.0156 Q816.8594,647.625 816.625,647.8906 Q816.3906,648.1563 816.0156,648.1563 Q815.6719,648.1563 815.4688,647.9531 Q815.2656,647.7656 815.1563,647.25 Q815.1094,646.8906 814.9219,646.7031 Q814.5938,646.3281 813.9844,646.1094 Q813.375,645.8906 812.75,645.8906 Q811.9844,645.8906 811.3516,646.2188 Q810.7188,646.5469 810.2266,647.2969 Q809.7344,648.0469 809.7344,649.0781 L809.7344,650.1719 Q809.7344,651.4063 810.625,652.2266 Q811.5156,653.0469 813.1094,653.0469 Q814.0469,653.0469 814.7031,652.7969 Q815.0938,652.6406 815.5156,652.2031 Q815.7813,651.9375 815.9297,651.8594 Q816.0781,651.7813 816.2813,651.7813 Q816.6094,651.7813 816.8672,652.0391 Q817.125,652.2969 817.125,652.6406 Q817.125,652.9844 816.7813,653.3906 Q816.2813,653.9688 815.4844,654.2969 Q814.4063,654.75 813.1094,654.75 Q811.5938,654.75 810.3906,654.125 Q809.4063,653.625 808.7188,652.5547 Q808.0313,651.4844 808.0313,650.2031 L808.0313,649.0469 Q808.0313,647.7188 808.6484,646.5703 Q809.2656,645.4219 810.3594,644.8047 Q811.4531,644.1875 812.6875,644.1875 Q813.4219,644.1875 814.0703,644.3516 Q814.7188,644.5156 815.2656,644.875 Z "/><text fill="#000000" font-family="sans-serif" font-size="12" lengthAdjust="spacingAndGlyphs" textLength="101" x="826.5" y="653.9102">PolylineAnnotation</text><line style="stroke: #000000; stroke-width: 1.5;" x1="798.5" x2="929.5" y1="665" y2="665"/><line style="stroke: #000000; stroke-width: 1.5;" x1="798.5" x2="929.5" y1="673" y2="673"/><!--class PolygonAnnotation--><rect fill="#FFFFFF" filter="url(#f1cwgu0si0ob5b)" height="48" id="PolygonAnnotation" style="stroke: #000000; stroke-width: 1.5;" width="134" x="797" y="742"/><ellipse cx="812" cy="758" fill="#FFFFFF" rx="11" ry="11" style="stroke: #000000; stroke-width: 1.0;"/><path d="M814.7656,753.875 Q814.9219,753.6563 815.1094,753.5469 Q815.2969,753.4375 815.5156,753.4375 Q815.8906,753.4375 816.125,753.6953 Q816.3594,753.9531 816.3594,754.5625 L816.3594,756.0156 Q816.3594,756.625 816.125,756.8906 Q815.8906,757.1563 815.5156,757.1563 Q815.1719,757.1563 814.9688,756.9531 Q814.7656,756.7656 814.6563,756.25 Q814.6094,755.8906 814.4219,755.7031 Q814.0938,755.3281 813.4844,755.1094 Q812.875,754.8906 812.25,754.8906 Q811.4844,754.8906 810.8516,755.2188 Q810.2188,755.5469 809.7266,756.2969 Q809.2344,757.0469 809.2344,758.0781 L809.2344,759.1719 Q809.2344,760.4063 810.125,761.2266 Q811.0156,762.0469 812.6094,762.0469 Q813.5469,762.0469 814.2031,761.7969 Q814.5938,761.6406 815.0156,761.2031 Q815.2813,760.9375 815.4297,760.8594 Q815.5781,760.7813 815.7813,760.7813 Q816.1094,760.7813 816.3672,761.0391 Q816.625,761.2969 816.625,761.6406 Q816.625,761.9844 816.2813,762.3906 Q815.7813,762.9688 814.9844,763.2969 Q813.9063,763.75 812.6094,763.75 Q811.0938,763.75 809.8906,763.125 Q808.9063,762.625 808.2188,761.5547 Q807.5313,760.4844 807.5313,759.2031 L807.5313,758.0469 Q807.5313,756.7188 808.1484,755.5703 Q808.7656,754.4219 809.8594,753.8047 Q810.9531,753.1875 812.1875,753.1875 Q812.9219,753.1875 813.5703,753.3516 Q814.2188,753.5156 814.7656,753.875 Z "/><text fill="#000000" font-family="sans-serif" font-size="12" lengthAdjust="spacingAndGlyphs" textLength="102" x="826" y="762.9102">PolygonAnnotation</text><line style="stroke: #000000; stroke-width: 1.5;" x1="798" x2="930" y1="774" y2="774"/><line style="stroke: #000000; stroke-width: 1.5;" x1="798" x2="930" y1="782" y2="782"/><!--class CaretAnnotation--><rect fill="#FFFFFF" filter="url(#f1cwgu0si0ob5b)" height="48" id="CaretAnnotation" style="stroke: #000000; stroke-width: 1.5;" width="120" x="966" y="633"/><ellipse cx="981" cy="649" fill="#FFFFFF" rx="11" ry="11" style="stroke: #000000; stroke-width: 1.0;"/><path d="M983.7656,644.875 Q983.9219,644.6563 984.1094,644.5469 Q984.2969,644.4375 984.5156,644.4375 Q984.8906,644.4375 985.125,644.6953 Q985.3594,644.9531 985.3594,645.5625 L985.3594,647.0156 Q985.3594,647.625 985.125,647.8906 Q984.8906,648.1563 984.5156,648.1563 Q984.1719,648.1563 983.9688,647.9531 Q983.7656,647.7656 983.6563,647.25 Q983.6094,646.8906 983.4219,646.7031 Q983.0938,646.3281 982.4844,646.1094 Q981.875,645.8906 981.25,645.8906 Q980.4844,645.8906 979.8516,646.2188 Q979.2188,646.5469 978.7266,647.2969 Q978.2344,648.0469 978.2344,649.0781 L978.2344,650.1719 Q978.2344,651.4063 979.125,652.2266 Q980.0156,653.0469 981.6094,653.0469 Q982.5469,653.0469 983.2031,652.7969 Q983.5938,652.6406 984.0156,652.2031 Q984.2813,651.9375 984.4297,651.8594 Q984.5781,651.7813 984.7813,651.7813 Q985.1094,651.7813 985.3672,652.0391 Q985.625,652.2969 985.625,652.6406 Q985.625,652.9844 985.2813,653.3906 Q984.7813,653.9688 983.9844,654.2969 Q982.9063,654.75 981.6094,654.75 Q980.0938,654.75 978.8906,654.125 Q977.9063,653.625 977.2188,652.5547 Q976.5313,651.4844 976.5313,650.2031 L976.5313,649.0469 Q976.5313,647.7188 977.1484,646.5703 Q977.7656,645.4219 978.8594,644.8047 Q979.9531,644.1875 981.1875,644.1875 Q981.9219,644.1875 982.5703,644.3516 Q983.2188,644.5156 983.7656,644.875 Z "/><text fill="#000000" font-family="sans-serif" font-size="12" lengthAdjust="spacingAndGlyphs" textLength="88" x="995" y="653.9102">CaretAnnotation</text><line style="stroke: #000000; stroke-width: 1.5;" x1="967" x2="1085" y1="665" y2="665"/><line style="stroke: #000000; stroke-width: 1.5;" x1="967" x2="1085" y1="673" y2="673"/><!--class InkAnnotation--><rect fill="#FFFFFF" filter="url(#f1cwgu0si0ob5b)" height="48" id="InkAnnotation" style="stroke: #000000; stroke-width: 1.5;" width="106" x="1121" y="633"/><ellipse cx="1136" cy="649" fill="#FFFFFF" rx="11" ry="11" style="stroke: #000000; stroke-width: 1.0;"/><path d="M1138.7656,644.875 Q1138.9219,644.6563 1139.1094,644.5469 Q1139.2969,644.4375 1139.5156,644.4375 Q1139.8906,644.4375 1140.125,644.6953 Q1140.3594,644.9531 1140.3594,645.5625 L1140.3594,647.0156 Q1140.3594,647.625 1140.125,647.8906 Q1139.8906,648.1563 1139.5156,648.1563 Q1139.1719,648.1563 1138.9688,647.9531 Q1138.7656,647.7656 1138.6563,647.25 Q1138.6094,646.8906 1138.4219,646.7031 Q1138.0938,646.3281 1137.4844,646.1094 Q1136.875,645.8906 1136.25,645.8906 Q1135.4844,645.8906 1134.8516,646.2188 Q1134.2188,646.5469 1133.7266,647.2969 Q1133.2344,648.0469 1133.2344,649.0781 L1133.2344,650.1719 Q1133.2344,651.4063 1134.125,652.2266 Q1135.0156,653.0469 1136.6094,653.0469 Q1137.5469,653.0469 1138.2031,652.7969 Q1138.5938,652.6406 1139.0156,652.2031 Q1139.2813,651.9375 1139.4297,651.8594 Q1139.5781,651.7813 1139.7813,651.7813 Q1140.1094,651.7813 1140.3672,652.0391 Q1140.625,652.2969 1140.625,652.6406 Q1140.625,652.9844 1140.2813,653.3906 Q1139.7813,653.9688 1138.9844,654.2969 Q1137.9063,654.75 1136.6094,654.75 Q1135.0938,654.75 1133.8906,654.125 Q1132.9063,653.625 1132.2188,652.5547 Q1131.5313,651.4844 1131.5313,650.2031 L1131.5313,649.0469 Q1131.5313,647.7188 1132.1484,646.5703 Q1132.7656,645.4219 1133.8594,644.8047 Q1134.9531,644.1875 1136.1875,644.1875 Q1136.9219,644.1875 1137.5703,644.3516 Q1138.2188,644.5156 1138.7656,644.875 Z "/><text fill="#000000" font-family="sans-serif" font-size="12" lengthAdjust="spacingAndGlyphs" textLength="74" x="1150" y="653.9102">InkAnnotation</text><line style="stroke: #000000; stroke-width: 1.5;" x1="1122" x2="1226" y1="665" y2="665"/><line style="stroke: #000000; stroke-width: 1.5;" x1="1122" x2="1226" y1="673" y2="673"/><!--class HighlightAnnotation--><rect fill="#FFFFFF" filter="url(#f1cwgu0si0ob5b)" height="48" id="HighlightAnnotation" style="stroke: #000000; stroke-width: 1.5;" width="139" x="1262.5" y="633"/><ellipse cx="1277.5" cy="649" fill="#FFFFFF" rx="11" ry="11" style="stroke: #000000; stroke-width: 1.0;"/><path d="M1280.2656,644.875 Q1280.4219,644.6563 1280.6094,644.5469 Q1280.7969,644.4375 1281.0156,644.4375 Q1281.3906,644.4375 1281.625,644.6953 Q1281.8594,644.9531 1281.8594,645.5625 L1281.8594,647.0156 Q1281.8594,647.625 1281.625,647.8906 Q1281.3906,648.1563 1281.0156,648.1563 Q1280.6719,648.1563 1280.4688,647.9531 Q1280.2656,647.7656 1280.1563,647.25 Q1280.1094,646.8906 1279.9219,646.7031 Q1279.5938,646.3281 1278.9844,646.1094 Q1278.375,645.8906 1277.75,645.8906 Q1276.9844,645.8906 1276.3516,646.2188 Q1275.7188,646.5469 1275.2266,647.2969 Q1274.7344,648.0469 1274.7344,649.0781 L1274.7344,650.1719 Q1274.7344,651.4063 1275.625,652.2266 Q1276.5156,653.0469 1278.1094,653.0469 Q1279.0469,653.0469 1279.7031,652.7969 Q1280.0938,652.6406 1280.5156,652.2031 Q1280.7813,651.9375 1280.9297,651.8594 Q1281.0781,651.7813 1281.2813,651.7813 Q1281.6094,651.7813 1281.8672,652.0391 Q1282.125,652.2969 1282.125,652.6406 Q1282.125,652.9844 1281.7813,653.3906 Q1281.2813,653.9688 1280.4844,654.2969 Q1279.4063,654.75 1278.1094,654.75 Q1276.5938,654.75 1275.3906,654.125 Q1274.4063,653.625 1273.7188,652.5547 Q1273.0313,651.4844 1273.0313,650.2031 L1273.0313,649.0469 Q1273.0313,647.7188 1273.6484,646.5703 Q1274.2656,645.4219 1275.3594,644.8047 Q1276.4531,644.1875 1277.6875,644.1875 Q1278.4219,644.1875 1279.0703,644.3516 Q1279.7188,644.5156 1280.2656,644.875 Z "/><text fill="#000000" font-family="sans-serif" font-size="12" lengthAdjust="spacingAndGlyphs" textLength="107" x="1291.5" y="653.9102">HighlightAnnotation</text><line style="stroke: #000000; stroke-width: 1.5;" x1="1263.5" x2="1400.5" y1="665" y2="665"/><line style="stroke: #000000; stroke-width: 1.5;" x1="1263.5" x2="1400.5" y1="673" y2="673"/><!--class UnderlineAnnotation--><rect fill="#FFFFFF" filter="url(#f1cwgu0si0ob5b)" height="48" id="UnderlineAnnotation" style="stroke: #000000; stroke-width: 1.5;" width="144" x="1437" y="633"/><ellipse cx="1452" cy="649" fill="#FFFFFF" rx="11" ry="11" style="stroke: #000000; stroke-width: 1.0;"/><path d="M1454.7656,644.875 Q1454.9219,644.6563 1455.1094,644.5469 Q1455.2969,644.4375 1455.5156,644.4375 Q1455.8906,644.4375 1456.125,644.6953 Q1456.3594,644.9531 1456.3594,645.5625 L1456.3594,647.0156 Q1456.3594,647.625 1456.125,647.8906 Q1455.8906,648.1563 1455.5156,648.1563 Q1455.1719,648.1563 1454.9688,647.9531 Q1454.7656,647.7656 1454.6563,647.25 Q1454.6094,646.8906 1454.4219,646.7031 Q1454.0938,646.3281 1453.4844,646.1094 Q1452.875,645.8906 1452.25,645.8906 Q1451.4844,645.8906 1450.8516,646.2188 Q1450.2188,646.5469 1449.7266,647.2969 Q1449.2344,648.0469 1449.2344,649.0781 L1449.2344,650.1719 Q1449.2344,651.4063 1450.125,652.2266 Q1451.0156,653.0469 1452.6094,653.0469 Q1453.5469,653.0469 1454.2031,652.7969 Q1454.5938,652.6406 1455.0156,652.2031 Q1455.2813,651.9375 1455.4297,651.8594 Q1455.5781,651.7813 1455.7813,651.7813 Q1456.1094,651.7813 1456.3672,652.0391 Q1456.625,652.2969 1456.625,652.6406 Q1456.625,652.9844 1456.2813,653.3906 Q1455.7813,653.9688 1454.9844,654.2969 Q1453.9063,654.75 1452.6094,654.75 Q1451.0938,654.75 1449.8906,654.125 Q1448.9063,653.625 1448.2188,652.5547 Q1447.5313,651.4844 1447.5313,650.2031 L1447.5313,649.0469 Q1447.5313,647.7188 1448.1484,646.5703 Q1448.7656,645.4219 1449.8594,644.8047 Q1450.9531,644.1875 1452.1875,644.1875 Q1452.9219,644.1875 1453.5703,644.3516 Q1454.2188,644.5156 1454.7656,644.875 Z "/><text fill="#000000" font-family="sans-serif" font-size="12" lengthAdjust="spacingAndGlyphs" textLength="112" x="1466" y="653.9102">UnderlineAnnotation</text><line style="stroke: #000000; stroke-width: 1.5;" x1="1438" x2="1580" y1="665" y2="665"/><line style="stroke: #000000; stroke-width: 1.5;" x1="1438" x2="1580" y1="673" y2="673"/><!--class SquigglyAnnotation--><rect fill="#FFFFFF" filter="url(#f1cwgu0si0ob5b)" height="48" id="SquigglyAnnotation" style="stroke: #000000; stroke-width: 1.5;" width="137" x="1616.5" y="633"/><ellipse cx="1631.5" cy="649" fill="#FFFFFF" rx="11" ry="11" style="stroke: #000000; stroke-width: 1.0;"/><path d="M1634.2656,644.875 Q1634.4219,644.6563 1634.6094,644.5469 Q1634.7969,644.4375 1635.0156,644.4375 Q1635.3906,644.4375 1635.625,644.6953 Q1635.8594,644.9531 1635.8594,645.5625 L1635.8594,647.0156 Q1635.8594,647.625 1635.625,647.8906 Q1635.3906,648.1563 1635.0156,648.1563 Q1634.6719,648.1563 1634.4688,647.9531 Q1634.2656,647.7656 1634.1563,647.25 Q1634.1094,646.8906 1633.9219,646.7031 Q1633.5938,646.3281 1632.9844,646.1094 Q1632.375,645.8906 1631.75,645.8906 Q1630.9844,645.8906 1630.3516,646.2188 Q1629.7188,646.5469 1629.2266,647.2969 Q1628.7344,648.0469 1628.7344,649.0781 L1628.7344,650.1719 Q1628.7344,651.4063 1629.625,652.2266 Q1630.5156,653.0469 1632.1094,653.0469 Q1633.0469,653.0469 1633.7031,652.7969 Q1634.0938,652.6406 1634.5156,652.2031 Q1634.7813,651.9375 1634.9297,651.8594 Q1635.0781,651.7813 1635.2813,651.7813 Q1635.6094,651.7813 1635.8672,652.0391 Q1636.125,652.2969 1636.125,652.6406 Q1636.125,652.9844 1635.7813,653.3906 Q1635.2813,653.9688 1634.4844,654.2969 Q1633.4063,654.75 1632.1094,654.75 Q1630.5938,654.75 1629.3906,654.125 Q1628.4063,653.625 1627.7188,652.5547 Q1627.0313,651.4844 1627.0313,650.2031 L1627.0313,649.0469 Q1627.0313,647.7188 1627.6484,646.5703 Q1628.2656,645.4219 1629.3594,644.8047 Q1630.4531,644.1875 1631.6875,644.1875 Q1632.4219,644.1875 1633.0703,644.3516 Q1633.7188,644.5156 1634.2656,644.875 Z "/><text fill="#000000" font-family="sans-serif" font-size="12" lengthAdjust="spacingAndGlyphs" textLength="105" x="1645.5" y="653.9102">SquigglyAnnotation</text><line style="stroke: #000000; stroke-width: 1.5;" x1="1617.5" x2="1752.5" y1="665" y2="665"/><line style="stroke: #000000; stroke-width: 1.5;" x1="1617.5" x2="1752.5" y1="673" y2="673"/><!--class StrikeOutAnnotation--><rect fill="#FFFFFF" filter="url(#f1cwgu0si0ob5b)" height="48" id="StrikeOutAnnotation" style="stroke: #000000; stroke-width: 1.5;" width="140" x="1789" y="633"/><ellipse cx="1804" cy="649" fill="#FFFFFF" rx="11" ry="11" style="stroke: #000000; stroke-width: 1.0;"/><path d="M1806.7656,644.875 Q1806.9219,644.6563 1807.1094,644.5469 Q1807.2969,644.4375 1807.5156,644.4375 Q1807.8906,644.4375 1808.125,644.6953 Q1808.3594,644.9531 1808.3594,645.5625 L1808.3594,647.0156 Q1808.3594,647.625 1808.125,647.8906 Q1807.8906,648.1563 1807.5156,648.1563 Q1807.1719,648.1563 1806.9688,647.9531 Q1806.7656,647.7656 1806.6563,647.25 Q1806.6094,646.8906 1806.4219,646.7031 Q1806.0938,646.3281 1805.4844,646.1094 Q1804.875,645.8906 1804.25,645.8906 Q1803.4844,645.8906 1802.8516,646.2188 Q1802.2188,646.5469 1801.7266,647.2969 Q1801.2344,648.0469 1801.2344,649.0781 L1801.2344,650.1719 Q1801.2344,651.4063 1802.125,652.2266 Q1803.0156,653.0469 1804.6094,653.0469 Q1805.5469,653.0469 1806.2031,652.7969 Q1806.5938,652.6406 1807.0156,652.2031 Q1807.2813,651.9375 1807.4297,651.8594 Q1807.5781,651.7813 1807.7813,651.7813 Q1808.1094,651.7813 1808.3672,652.0391 Q1808.625,652.2969 1808.625,652.6406 Q1808.625,652.9844 1808.2813,653.3906 Q1807.7813,653.9688 1806.9844,654.2969 Q1805.9063,654.75 1804.6094,654.75 Q1803.0938,654.75 1801.8906,654.125 Q1800.9063,653.625 1800.2188,652.5547 Q1799.5313,651.4844 1799.5313,650.2031 L1799.5313,649.0469 Q1799.5313,647.7188 1800.1484,646.5703 Q1800.7656,645.4219 1801.8594,644.8047 Q1802.9531,644.1875 1804.1875,644.1875 Q1804.9219,644.1875 1805.5703,644.3516 Q1806.2188,644.5156 1806.7656,644.875 Z "/><text fill="#000000" font-family="sans-serif" font-size="12" lengthAdjust="spacingAndGlyphs" textLength="108" x="1818" y="653.9102">StrikeOutAnnotation</text><line style="stroke: #000000; stroke-width: 1.5;" x1="1790" x2="1928" y1="665" y2="665"/><line style="stroke: #000000; stroke-width: 1.5;" x1="1790" x2="1928" y1="673" y2="673"/><!--class StampAnnotation--><rect fill="#FFFFFF" filter="url(#f1cwgu0si0ob5b)" height="48" id="StampAnnotation" style="stroke: #000000; stroke-width: 1.5;" width="126" x="1964" y="633"/><ellipse cx="1979" cy="649" fill="#FFFFFF" rx="11" ry="11" style="stroke: #000000; stroke-width: 1.0;"/><path d="M1981.7656,644.875 Q1981.9219,644.6563 1982.1094,644.5469 Q1982.2969,644.4375 1982.5156,644.4375 Q1982.8906,644.4375 1983.125,644.6953 Q1983.3594,644.9531 1983.3594,645.5625 L1983.3594,647.0156 Q1983.3594,647.625 1983.125,647.8906 Q1982.8906,648.1563 1982.5156,648.1563 Q1982.1719,648.1563 1981.9688,647.9531 Q1981.7656,647.7656 1981.6563,647.25 Q1981.6094,646.8906 1981.4219,646.7031 Q1981.0938,646.3281 1980.4844,646.1094 Q1979.875,645.8906 1979.25,645.8906 Q1978.4844,645.8906 1977.8516,646.2188 Q1977.2188,646.5469 1976.7266,647.2969 Q1976.2344,648.0469 1976.2344,649.0781 L1976.2344,650.1719 Q1976.2344,651.4063 1977.125,652.2266 Q1978.0156,653.0469 1979.6094,653.0469 Q1980.5469,653.0469 1981.2031,652.7969 Q1981.5938,652.6406 1982.0156,652.2031 Q1982.2813,651.9375 1982.4297,651.8594 Q1982.5781,651.7813 1982.7813,651.7813 Q1983.1094,651.7813 1983.3672,652.0391 Q1983.625,652.2969 1983.625,652.6406 Q1983.625,652.9844 1983.2813,653.3906 Q1982.7813,653.9688 1981.9844,654.2969 Q1980.9063,654.75 1979.6094,654.75 Q1978.0938,654.75 1976.8906,654.125 Q1975.9063,653.625 1975.2188,652.5547 Q1974.5313,651.4844 1974.5313,650.2031 L1974.5313,649.0469 Q1974.5313,647.7188 1975.1484,646.5703 Q1975.7656,645.4219 1976.8594,644.8047 Q1977.9531,644.1875 1979.1875,644.1875 Q1979.9219,644.1875 1980.5703,644.3516 Q1981.2188,644.5156 1981.7656,644.875 Z "/><text fill="#000000" font-family="sans-serif" font-size="12" lengthAdjust="spacingAndGlyphs" textLength="94" x="1993" y="653.9102">StampAnnotation</text><line style="stroke: #000000; stroke-width: 1.5;" x1="1965" x2="2089" y1="665" y2="665"/><line style="stroke: #000000; stroke-width: 1.5;" x1="1965" x2="2089" y1="673" y2="673"/><!--class FileAttachmentAnnotation--><rect fill="#FFFFFF" filter="url(#f1cwgu0si0ob5b)" height="48" id="FileAttachmentAnnotation" style="stroke: #000000; stroke-width: 1.5;" width="171" x="2125.5" y="633"/><ellipse cx="2140.5" cy="649" fill="#FFFFFF" rx="11" ry="11" style="stroke: #000000; stroke-width: 1.0;"/><path d="M2143.2656,644.875 Q2143.4219,644.6563 2143.6094,644.5469 Q2143.7969,644.4375 2144.0156,644.4375 Q2144.3906,644.4375 2144.625,644.6953 Q2144.8594,644.9531 2144.8594,645.5625 L2144.8594,647.0156 Q2144.8594,647.625 2144.625,647.8906 Q2144.3906,648.1563 2144.0156,648.1563 Q2143.6719,648.1563 2143.4688,647.9531 Q2143.2656,647.7656 2143.1563,647.25 Q2143.1094,646.8906 2142.9219,646.7031 Q2142.5938,646.3281 2141.9844,646.1094 Q2141.375,645.8906 2140.75,645.8906 Q2139.9844,645.8906 2139.3516,646.2188 Q2138.7188,646.5469 2138.2266,647.2969 Q2137.7344,648.0469 2137.7344,649.0781 L2137.7344,650.1719 Q2137.7344,651.4063 2138.625,652.2266 Q2139.5156,653.0469 2141.1094,653.0469 Q2142.0469,653.0469 2142.7031,652.7969 Q2143.0938,652.6406 2143.5156,652.2031 Q2143.7813,651.9375 2143.9297,651.8594 Q2144.0781,651.7813 2144.2813,651.7813 Q2144.6094,651.7813 2144.8672,652.0391 Q2145.125,652.2969 2145.125,652.6406 Q2145.125,652.9844 2144.7813,653.3906 Q2144.2813,653.9688 2143.4844,654.2969 Q2142.4063,654.75 2141.1094,654.75 Q2139.5938,654.75 2138.3906,654.125 Q2137.4063,653.625 2136.7188,652.5547 Q2136.0313,651.4844 2136.0313,650.2031 L2136.0313,649.0469 Q2136.0313,647.7188 2136.6484,646.5703 Q2137.2656,645.4219 2138.3594,644.8047 Q2139.4531,644.1875 2140.6875,644.1875 Q2141.4219,644.1875 2142.0703,644.3516 Q2142.7188,644.5156 2143.2656,644.875 Z "/><text fill="#000000" font-family="sans-serif" font-size="12" lengthAdjust="spacingAndGlyphs" textLength="139" x="2154.5" y="653.9102">FileAttachmentAnnotation</text><line style="stroke: #000000; stroke-width: 1.5;" x1="2126.5" x2="2295.5" y1="665" y2="665"/><line style="stroke: #000000; stroke-width: 1.5;" x1="2126.5" x2="2295.5" y1="673" y2="673"/><!--link AnnotationFactory to Annotation--><path d="M1349,146.066 C1349,173.115 1349,207.572 1349,240.575 " fill="none" id="AnnotationFactory-&gt;Annotation" style="stroke: #000000; stroke-width: 1.0;"/><polygon fill="none" points="1356,240.857,1349,260.857,1342,240.857,1356,240.857" style="stroke: #000000; stroke-width: 1.0;"/><text fill="#000000" font-family="sans-serif" font-size="13" lengthAdjust="spacingAndGlyphs" textLength="57" x="1350" y="225.4951">creates</text><!--reverse link Annotation to MarkupAnnotation--><path d="M1338.59,467.056 C1337.2,482.054 1335.88,496.275 1334.79,507.993 " fill="none" id="Annotation&lt;-MarkupAnnotation" style="stroke: #000000; stroke-width: 1.0;"/><polygon fill="none" points="1331.63,466.303,1340.45,447.036,1345.57,467.598,1331.63,466.303" style="stroke: #000000; stroke-width: 1.0;"/><!--reverse link Annotation to WidgetAnnotation--><path d="M1486.75,393.604 C1611.35,428.523 1791.81,479.097 1902.78,510.193 " fill="none" id="Annotation&lt;-WidgetAnnotation" style="stroke: #000000; stroke-width: 1.0;"/><polygon fill="none" points="1484.62,400.277,1467.25,388.14,1488.4,386.797,1484.62,400.277" style="stroke: #000000; stroke-width: 1.0;"/><!--reverse link WidgetAnnotation to TextWidgetAnnotation--><path d="M2074.68,578.465 C2089.03,584.638 2104.23,590.228 2119,594 C2169.93,607.007 2185.36,592.195 2237,602 C2274.12,609.047 2314.47,621.641 2346.54,632.895 " fill="none" id="WidgetAnnotation&lt;-TextWidgetAnnotation" style="stroke: #000000; stroke-width: 1.0;"/><polygon fill="none" points="2071.7,584.797,2056.41,570.119,2077.52,572.063,2071.7,584.797" style="stroke: #000000; stroke-width: 1.0;"/><!--reverse link WidgetAnnotation to ButtonWidgetAnnotation--><path d="M2074.43,578.526 C2088.84,584.722 2104.13,590.305 2119,594 C2182.07,609.673 2200.29,595.968 2265,602 C2369.89,611.778 2396.35,614.169 2500,633 C2505.64,634.025 2511.45,635.161 2517.28,636.362 " fill="none" id="WidgetAnnotation&lt;-ButtonWidgetAnnotation" style="stroke: #000000; stroke-width: 1.0;"/><polygon fill="none" points="2071.36,584.82,2056.08,570.134,2077.18,572.088,2071.36,584.82" style="stroke: #000000; stroke-width: 1.0;"/><!--reverse link WidgetAnnotation to ChoiceWidgetAnnotation--><path d="M2074.18,578.54 C2088.66,584.764 2104.04,590.354 2119,594 C2156.82,603.218 2255.14,599.622 2294,602 C2473.75,613.002 2519.95,606.045 2698,633 C2703.69,633.861 2709.54,634.867 2715.41,635.967 " fill="none" id="WidgetAnnotation&lt;-ChoiceWidgetAnnotation" style="stroke: #000000; stroke-width: 1.0;"/><polygon fill="none" points="2071.03,584.796,2055.76,570.102,2076.86,572.068,2071.03,584.796" style="stroke: #000000; stroke-width: 1.0;"/><!--reverse link MarkupAnnotation to TextAnnotation--><path d="M1211.15,540.507 C993.972,543.382 524.12,558.569 136,633 C130.186,634.115 124.185,635.526 118.233,637.099 " fill="none" id="MarkupAnnotation&lt;-TextAnnotation" style="stroke: #000000; stroke-width: 1.0;"/><polygon fill="none" points="1211.29,533.505,1231.37,540.266,1211.46,547.504,1211.29,533.505" style="stroke: #000000; stroke-width: 1.0;"/><!--reverse link Annotation to LinkAnnotation--><path d="M1487.05,374.611 C1642.42,398.485 1901.4,443.73 2118,508 C2124.72,509.995 2131.68,512.355 2138.52,514.861 " fill="none" id="Annotation&lt;-LinkAnnotation" style="stroke: #000000; stroke-width: 1.0;"/><polygon fill="none" points="1485.95,381.524,1467.23,371.595,1488.06,367.683,1485.95,381.524" style="stroke: #000000; stroke-width: 1.0;"/><!--reverse link Annotation to PopupAnnotation--><path d="M1487.19,369.749 C1668.36,390.962 1995.1,435.69 2267,508 C2274.39,509.966 2282.05,512.339 2289.58,514.879 " fill="none" id="Annotation&lt;-PopupAnnotation" style="stroke: #000000; stroke-width: 1.0;"/><polygon fill="none" points="1486.23,376.685,1467.17,367.432,1487.84,362.778,1486.23,376.685" style="stroke: #000000; stroke-width: 1.0;"/><!--reverse link MarkupAnnotation to FreeTextAnnotation--><path d="M1211.16,550.103 C1069.66,562.033 828.251,582.701 621,602 C481.81,614.961 445.533,607.97 308,633 C302.374,634.024 296.578,635.232 290.778,636.55 " fill="none" id="MarkupAnnotation&lt;-FreeTextAnnotation" style="stroke: #000000; stroke-width: 1.0;"/><polygon fill="none" points="1210.78,543.11,1231.3,548.407,1211.95,557.061,1210.78,543.11" style="stroke: #000000; stroke-width: 1.0;"/><!--reverse link MarkupAnnotation to LineAnnotation--><path d="M1211.07,545.375 C1041.17,554.615 722.831,578.112 457,633 C451.466,634.143 445.756,635.529 440.077,637.049 " fill="none" id="MarkupAnnotation&lt;-LineAnnotation" style="stroke: #000000; stroke-width: 1.0;"/><polygon fill="none" points="1210.95,538.372,1231.29,544.305,1211.69,552.352,1210.95,538.372" style="stroke: #000000; stroke-width: 1.0;"/><!--reverse link MarkupAnnotation to SquareAnnotation--><path d="M1211.1,550.515 C1069.09,564.089 826.888,591.072 622,633 C616.496,634.126 610.819,635.425 605.141,636.82 " fill="none" id="MarkupAnnotation&lt;-SquareAnnotation" style="stroke: #000000; stroke-width: 1.0;"/><polygon fill="none" points="1210.74,543.518,1231.3,548.609,1212.05,557.456,1210.74,543.518" style="stroke: #000000; stroke-width: 1.0;"/><!--reverse link MarkupAnnotation to CircleAnnotation--><path d="M1211.41,556.188 C1099.05,572.245 927.19,599.295 780,633 C774.152,634.339 768.096,635.858 762.058,637.462 " fill="none" id="MarkupAnnotation&lt;-CircleAnnotation" style="stroke: #000000; stroke-width: 1.0;"/><polygon fill="none" points="1210.55,549.24,1231.34,553.367,1212.52,563.102,1210.55,549.24" style="stroke: #000000; stroke-width: 1.0;"/><!--reverse link MarkupAnnotation to PolylineAnnotation--><path d="M1211.42,568.234 C1135.66,586.215 1035.95,610.314 948,633 C942.436,634.435 936.674,635.951 930.894,637.492 " fill="none" id="MarkupAnnotation&lt;-PolylineAnnotation" style="stroke: #000000; stroke-width: 1.0;"/><polygon fill="none" points="1210.06,561.362,1231.14,563.565,1213.29,574.986,1210.06,561.362" style="stroke: #000000; stroke-width: 1.0;"/><!--reverse link PolylineAnnotation to PolygonAnnotation--><path d="M864,701.5778 C864,715.3622 864,730.0574 864,741.8279 " fill="none" id="PolylineAnnotation&lt;-PolygonAnnotation" style="stroke: #000000; stroke-width: 1.0;"/><polygon fill="none" points="857,701.2174,864,681.217,871,701.2174,857,701.2174" style="stroke: #000000; stroke-width: 1.0;"/><!--reverse link MarkupAnnotation to CaretAnnotation--><path d="M1233.93,577.175 C1185.29,595.616 1128.1,617.296 1086.02,633.247 " fill="none" id="MarkupAnnotation&lt;-CaretAnnotation" style="stroke: #000000; stroke-width: 1.0;"/><polygon fill="none" points="1231.62,570.568,1252.8,570.024,1236.58,583.659,1231.62,570.568" style="stroke: #000000; stroke-width: 1.0;"/><!--reverse link MarkupAnnotation to InkAnnotation--><path d="M1274.52,582.201 C1251.19,599.331 1225.14,618.451 1205.41,632.937 " fill="none" id="MarkupAnnotation&lt;-InkAnnotation" style="stroke: #000000; stroke-width: 1.0;"/><polygon fill="none" points="1270.64,576.368,1290.9,570.175,1278.92,587.654,1270.64,576.368" style="stroke: #000000; stroke-width: 1.0;"/><!--reverse link MarkupAnnotation to HighlightAnnotation--><path d="M1332,590.303 C1332,605.16 1332,620.701 1332,632.937 " fill="none" id="MarkupAnnotation&lt;-HighlightAnnotation" style="stroke: #000000; stroke-width: 1.0;"/><polygon fill="none" points="1325,590.175,1332,570.175,1339,590.175,1325,590.175" style="stroke: #000000; stroke-width: 1.0;"/><!--reverse link MarkupAnnotation to UnderlineAnnotation--><path d="M1394.87,581.206 C1421.4,598.587 1451.28,618.17 1473.81,632.937 " fill="none" id="MarkupAnnotation&lt;-UnderlineAnnotation" style="stroke: #000000; stroke-width: 1.0;"/><polygon fill="none" points="1390.93,586.992,1378.04,570.175,1398.61,575.283,1390.93,586.992" style="stroke: #000000; stroke-width: 1.0;"/><!--reverse link MarkupAnnotation to SquigglyAnnotation--><path d="M1442.6,576.343 C1499.47,595.032 1567,617.223 1616.32,633.431 " fill="none" id="MarkupAnnotation&lt;-SquigglyAnnotation" style="stroke: #000000; stroke-width: 1.0;"/><polygon fill="none" points="1440.18,582.918,1423.37,570.024,1444.55,569.617,1440.18,582.918" style="stroke: #000000; stroke-width: 1.0;"/><!--reverse link MarkupAnnotation to StrikeOutAnnotation--><path d="M1452.28,563.898 C1540.69,581.848 1663.62,607.609 1771,633 C1776.84,634.381 1782.88,635.859 1788.95,637.374 " fill="none" id="MarkupAnnotation&lt;-StrikeOutAnnotation" style="stroke: #000000; stroke-width: 1.0;"/><polygon fill="none" points="1450.77,570.734,1432.55,559.906,1453.54,557.012,1450.77,570.734" style="stroke: #000000; stroke-width: 1.0;"/><!--reverse link MarkupAnnotation to StampAnnotation--><path d="M1452.74,553.712 C1577.16,568.909 1776.32,596.214 1946,633 C1951.86,634.27 1957.92,635.723 1963.96,637.268 " fill="none" id="MarkupAnnotation&lt;-StampAnnotation" style="stroke: #000000; stroke-width: 1.0;"/><polygon fill="none" points="1451.69,560.636,1432.68,551.287,1453.37,546.737,1451.69,560.636" style="stroke: #000000; stroke-width: 1.0;"/><!--reverse link MarkupAnnotation to FileAttachmentAnnotation--><path d="M1453.11,550.816 C1606.08,565.33 1877.1,593.881 2107,633 C2113.02,634.024 2119.21,635.166 2125.43,636.378 " fill="none" id="MarkupAnnotation&lt;-FileAttachmentAnnotation" style="stroke: #000000; stroke-width: 1.0;"/><polygon fill="none" points="1452.03,557.746,1432.78,548.904,1453.34,543.808,1452.03,557.746" style="stroke: #000000; stroke-width: 1.0;"/><!--
@startuml
skinparam classAttributeIconSize 0
skinparam class {
    BackgroundColor White
    BorderColor Black
    ArrowColor Black
}
skinparam StereotypeC {
    BackgroundColor White
}

together {
    class Annotation
    class MarkupAnnotation
}

AnnotationFactory - -|> Annotation : <<creates>>

class AnnotationFactory {
    {static}create(xref : XRef, ref : object, pdfManager : PDFManager, idFactory : Object) : Promise
    {static}_create(xref : XRef, ref : object, pdfManager : PDFManager, idFactory : Object) : Promise
    getQuadPoints(dict : Dict, rect : Array) : Array
    getTransformMatrix(rect : Array, bbox : Dict, matrix : Array) : Array
}

class Annotation {
    data : object
    +setContents(contents : String)
    +setModificationDate(modificationData : String)
    +setFlags(flags : Number)
    +hasFlag(flag : Number) : Boolean
    +setRectangle(rectangle : Array)
    +setColor(color : Array)
    +setBorderStyle(borderStyle : Dict)
    +setAppearance(dict : Dict)
    {method}...
}

class AnnotationBorderStyle {
    width : Number
    style : String
    dashArray : Array
    horizontalCornerRadius : Number
    verticalCornerRadius : Number
    +setWidth(width : Number, rect : Array)
    +setDashArray(dashArray : Array)
    +setHorizontalCornerRadius(radius : Number)
    +setVerticalCornerRadius(radius : Number)
}

class MarkupAnnotation extends Annotation {
    +setCreationDate(creationDate : String)
}

class WidgetAnnotation extends Annotation {
    +hasFieldFlag(flag : Number) : Boolean
}


class TextWidgetAnnotation extends WidgetAnnotation

class ButtonWidgetAnnotation extends WidgetAnnotation

class ChoiceWidgetAnnotation extends WidgetAnnotation

class TextAnnotation extends MarkupAnnotation

class LinkAnnotation extends Annotation

class PopupAnnotation extends Annotation

class FreeTextAnnotation extends MarkupAnnotation

class LineAnnotation extends MarkupAnnotation

class SquareAnnotation extends MarkupAnnotation

class CircleAnnotation extends MarkupAnnotation

class PolylineAnnotation extends MarkupAnnotation

class PolygonAnnotation extends PolylineAnnotation

class CaretAnnotation extends MarkupAnnotation

class InkAnnotation extends MarkupAnnotation

class HighlightAnnotation extends MarkupAnnotation

class UnderlineAnnotation extends MarkupAnnotation

class SquigglyAnnotation extends MarkupAnnotation

class StrikeOutAnnotation extends MarkupAnnotation

class StampAnnotation extends MarkupAnnotation

class FileAttachmentAnnotation extends MarkupAnnotation

@enduml

PlantUML version 1.2019.09(Mon Aug 26 12:19:51 EDT 2019)
(GPL source distribution)
Java Runtime: Java(TM) SE Runtime Environment
JVM: Java HotSpot(TM) 64-Bit Server VM
Java Version: 1.8.0_191-b12
Operating System: Windows 10
OS Version: 10.0
Default Encoding: Cp1252
Language: en
Country: CA
--></g></svg>